<mxfile host="app.diagrams.net" modified="2024-01-29T14:44:59.200Z" agent="Mozilla/5.0 (Windows NT 10.0; Win64; x64) AppleWebKit/537.36 (KHTML, like Gecko) Chrome/120.0.0.0 Safari/537.36" etag="ujXW0HYRX_nBeSX5VQRT" version="22.1.21" type="github">
  <diagram name="第 1 页" id="QZj1pQtj6cIfDQndI8oJ">
    <mxGraphModel dx="1195" dy="615" grid="1" gridSize="10" guides="1" tooltips="1" connect="1" arrows="1" fold="1" page="1" pageScale="1" pageWidth="827" pageHeight="1169" background="none" math="0" shadow="0">
      <root>
        <mxCell id="0" />
        <mxCell id="1" parent="0" />
        <mxCell id="4DALYiYjgBZSiOKcUsGB-13" value="Sen&lt;sub&gt;11&lt;/sub&gt;" style="text;html=1;align=center;verticalAlign=middle;resizable=0;points=[];autosize=1;strokeColor=none;fillColor=none;fontSize=15;fontFamily=Times New Roman;" vertex="1" parent="1">
          <mxGeometry x="80" y="35" width="60" height="40" as="geometry" />
        </mxCell>
        <mxCell id="4DALYiYjgBZSiOKcUsGB-14" value="Sen&lt;sub&gt;12&lt;/sub&gt;" style="text;html=1;align=center;verticalAlign=middle;resizable=0;points=[];autosize=1;strokeColor=none;fillColor=none;fontSize=15;fontFamily=Times New Roman;" vertex="1" parent="1">
          <mxGeometry x="80" y="195" width="60" height="40" as="geometry" />
        </mxCell>
        <mxCell id="4DALYiYjgBZSiOKcUsGB-15" value="M&lt;sub&gt;1&lt;/sub&gt;" style="text;html=1;align=center;verticalAlign=middle;resizable=0;points=[];autosize=1;strokeColor=none;fillColor=none;fontSize=15;fontFamily=Times New Roman;" vertex="1" parent="1">
          <mxGeometry x="90" y="75" width="40" height="40" as="geometry" />
        </mxCell>
        <mxCell id="4DALYiYjgBZSiOKcUsGB-21" value="M&lt;sub&gt;2&lt;/sub&gt;" style="text;html=1;align=center;verticalAlign=middle;resizable=0;points=[];autosize=1;strokeColor=none;fillColor=none;fontSize=15;fontFamily=Times New Roman;" vertex="1" parent="1">
          <mxGeometry x="90" y="115" width="40" height="40" as="geometry" />
        </mxCell>
        <mxCell id="4DALYiYjgBZSiOKcUsGB-22" value="..." style="text;html=1;align=center;verticalAlign=middle;resizable=0;points=[];autosize=1;strokeColor=none;fillColor=none;fontSize=15;fontFamily=Times New Roman;" vertex="1" parent="1">
          <mxGeometry x="95" y="160" width="30" height="30" as="geometry" />
        </mxCell>
        <mxCell id="4DALYiYjgBZSiOKcUsGB-23" value="M&lt;sub&gt;2&lt;/sub&gt;" style="text;html=1;align=center;verticalAlign=middle;resizable=0;points=[];autosize=1;strokeColor=none;fillColor=none;fontSize=15;fontFamily=Times New Roman;" vertex="1" parent="1">
          <mxGeometry x="90" y="235" width="40" height="40" as="geometry" />
        </mxCell>
        <mxCell id="4DALYiYjgBZSiOKcUsGB-24" value="M&lt;sub&gt;3&lt;/sub&gt;" style="text;html=1;align=center;verticalAlign=middle;resizable=0;points=[];autosize=1;strokeColor=none;fillColor=none;fontSize=15;fontFamily=Times New Roman;" vertex="1" parent="1">
          <mxGeometry x="90" y="275" width="40" height="40" as="geometry" />
        </mxCell>
        <mxCell id="4DALYiYjgBZSiOKcUsGB-25" value="..." style="text;html=1;align=center;verticalAlign=middle;resizable=0;points=[];autosize=1;strokeColor=none;fillColor=none;fontSize=15;fontFamily=Times New Roman;" vertex="1" parent="1">
          <mxGeometry x="95" y="320" width="30" height="30" as="geometry" />
        </mxCell>
        <mxCell id="4DALYiYjgBZSiOKcUsGB-1" value="" style="endArrow=none;html=1;rounded=0;fontSize=15;" edge="1" parent="1">
          <mxGeometry width="50" height="50" relative="1" as="geometry">
            <mxPoint x="140" y="80" as="sourcePoint" />
            <mxPoint x="140" y="40" as="targetPoint" />
          </mxGeometry>
        </mxCell>
        <mxCell id="4DALYiYjgBZSiOKcUsGB-3" value="" style="endArrow=none;html=1;rounded=0;fontSize=15;" edge="1" parent="1">
          <mxGeometry width="50" height="50" relative="1" as="geometry">
            <mxPoint x="660" y="80" as="sourcePoint" />
            <mxPoint x="660" y="40" as="targetPoint" />
          </mxGeometry>
        </mxCell>
        <mxCell id="4DALYiYjgBZSiOKcUsGB-4" value="" style="endArrow=none;html=1;rounded=0;fontSize=15;" edge="1" parent="1">
          <mxGeometry width="50" height="50" relative="1" as="geometry">
            <mxPoint x="140" y="60" as="sourcePoint" />
            <mxPoint x="660" y="60" as="targetPoint" />
          </mxGeometry>
        </mxCell>
        <mxCell id="4DALYiYjgBZSiOKcUsGB-5" value="" style="endArrow=none;dashed=1;html=1;rounded=0;fontSize=15;" edge="1" parent="1">
          <mxGeometry width="50" height="50" relative="1" as="geometry">
            <mxPoint x="140" y="200" as="sourcePoint" />
            <mxPoint x="140" y="80" as="targetPoint" />
          </mxGeometry>
        </mxCell>
        <mxCell id="4DALYiYjgBZSiOKcUsGB-6" value="" style="endArrow=none;dashed=1;html=1;rounded=0;fontSize=15;" edge="1" parent="1">
          <mxGeometry width="50" height="50" relative="1" as="geometry">
            <mxPoint x="660" y="200" as="sourcePoint" />
            <mxPoint x="660" y="80" as="targetPoint" />
          </mxGeometry>
        </mxCell>
        <mxCell id="4DALYiYjgBZSiOKcUsGB-7" value="" style="endArrow=none;html=1;rounded=0;fontSize=15;" edge="1" parent="1">
          <mxGeometry width="50" height="50" relative="1" as="geometry">
            <mxPoint x="140" y="240" as="sourcePoint" />
            <mxPoint x="140" y="200" as="targetPoint" />
          </mxGeometry>
        </mxCell>
        <mxCell id="4DALYiYjgBZSiOKcUsGB-8" value="" style="endArrow=none;html=1;rounded=0;fontSize=15;" edge="1" parent="1">
          <mxGeometry width="50" height="50" relative="1" as="geometry">
            <mxPoint x="660" y="240" as="sourcePoint" />
            <mxPoint x="660" y="200" as="targetPoint" />
          </mxGeometry>
        </mxCell>
        <mxCell id="4DALYiYjgBZSiOKcUsGB-9" value="" style="endArrow=none;html=1;rounded=0;fontSize=15;" edge="1" parent="1" source="4DALYiYjgBZSiOKcUsGB-83">
          <mxGeometry width="50" height="50" relative="1" as="geometry">
            <mxPoint x="140" y="220" as="sourcePoint" />
            <mxPoint x="660" y="220" as="targetPoint" />
          </mxGeometry>
        </mxCell>
        <mxCell id="4DALYiYjgBZSiOKcUsGB-10" value="" style="endArrow=none;dashed=1;html=1;rounded=0;fontSize=15;" edge="1" parent="1">
          <mxGeometry width="50" height="50" relative="1" as="geometry">
            <mxPoint x="140" y="360" as="sourcePoint" />
            <mxPoint x="140" y="240" as="targetPoint" />
          </mxGeometry>
        </mxCell>
        <mxCell id="4DALYiYjgBZSiOKcUsGB-11" value="" style="endArrow=none;dashed=1;html=1;rounded=0;fontSize=15;" edge="1" parent="1">
          <mxGeometry width="50" height="50" relative="1" as="geometry">
            <mxPoint x="660" y="360" as="sourcePoint" />
            <mxPoint x="660" y="240" as="targetPoint" />
          </mxGeometry>
        </mxCell>
        <mxCell id="4DALYiYjgBZSiOKcUsGB-27" value="" style="rounded=0;whiteSpace=wrap;html=1;fontSize=15;" vertex="1" parent="1">
          <mxGeometry x="180" y="90" width="120" height="20" as="geometry" />
        </mxCell>
        <mxCell id="4DALYiYjgBZSiOKcUsGB-28" value="" style="rounded=0;whiteSpace=wrap;html=1;fontSize=15;" vertex="1" parent="1">
          <mxGeometry x="430" y="90" width="100" height="20" as="geometry" />
        </mxCell>
        <mxCell id="4DALYiYjgBZSiOKcUsGB-29" value="" style="rounded=0;whiteSpace=wrap;html=1;fontSize=15;" vertex="1" parent="1">
          <mxGeometry x="260" y="130" width="120" height="20" as="geometry" />
        </mxCell>
        <mxCell id="4DALYiYjgBZSiOKcUsGB-30" value="" style="rounded=0;whiteSpace=wrap;html=1;fontSize=15;" vertex="1" parent="1">
          <mxGeometry x="200" y="260" width="140" height="20" as="geometry" />
        </mxCell>
        <mxCell id="4DALYiYjgBZSiOKcUsGB-31" value="" style="rounded=0;whiteSpace=wrap;html=1;fontSize=15;" vertex="1" parent="1">
          <mxGeometry x="510" y="260" width="100" height="20" as="geometry" />
        </mxCell>
        <mxCell id="4DALYiYjgBZSiOKcUsGB-32" value="" style="rounded=0;whiteSpace=wrap;html=1;fontSize=15;" vertex="1" parent="1">
          <mxGeometry x="400" y="290" width="130" height="20" as="geometry" />
        </mxCell>
        <mxCell id="4DALYiYjgBZSiOKcUsGB-64" value="" style="shape=image;verticalLabelPosition=bottom;labelBackgroundColor=default;verticalAlign=top;aspect=fixed;imageAspect=0;image=data:image/png,iVBORw0KGgoAAAANSUhEUgAAAFQAAAAxCAIAAADLMBl/AAAAAXNSR0IArs4c6QAACB9JREFUaAXtWutTFFcWzx/UH6bKVFnFhy5riqKMUxs7GZGMYmA1EwGVkMjDQk0UFkEKiCgBFvERiVELAmsIRKxZiQIqcQRRQGaHtw5vmm4G5tHM9N2iDnu8290zrslMamYjxYfTt+/j/M773J53yJ/4750/MXYSleBdbnf15RsVF74PrjlZlp89t6fl5I9POjRnRg14SVqbW+AfPn5aeel67I5PGJYrq76ihiTL8rJzxT468fM/O9Jy8nV6Y1y8eWT8hXomIdGj+Ue9/QzL/SXxQF5p1a6U7EDg3W5Pdl5ZjCFxf+bJvNIqhuX+H8Cj6gBeIPA4jRAC8noLPsrNHlX6VvNloTR7ryQ1tlgyjhWZ9mfF7/tiU2w8w3LXmlpR3pFDhF7zL6dm3t9zkGE5/NfpjY96+yMHM3ISevCQHnlBvHWnE/C/v+fgy6kZPDJyiNCDR2x371sBfOaJEpfbjeORQ4QR/LnaqwC+pq4+cgDTnIQL/Mqq61DuKQD/0NpHHxk5dLjAj0863vsohWG5iHV4Qki4wKPDZ+eVud2eyNE2zUm4wEe+w4dL8+jwmOF9Pp8gOgXR6fP5aNkHp91uDy+IvCBK0lrwmfTb154FE3hBfPbcDl3dodxTtuExXhAF0en3y7jbyqqLF8S5Bf7C940My23eampsscwt8LwgKsz5VT9PO7xteKymrj7GkAjBL8aQWFNXHyTzybL8wjFTeem6YXcaLGFYblNsfPBVhBBZlu2jE1+eroCakmG5babUzu4ev18en3Q87hvweLyAamT8RVy8GTeniV0p2bwgIviy6iv0W5pubLHgtP/q59Hh4+LN20yp20yprZaOuQW+f8i+L+M4w3K5BeWrLo3MvyQuF3z9d53eqNMbjxaefdTbv8gL45OOvNIqnd54sqTKK0n0kUg7V1aLztbq9MYtXPL1f/w8t8AP2kbSjxbGGBLzS6t1eiPDcj+2teP8kBOvNI8Oz7Bc1smSJXEZD7MNj+k/3MuwXO13P8jyKwMjhIxNvDTtz2JYjktKf/bcjksIIV5JOl50LnbHJ/bRCXoc6LkF/tPDJ2Dh8NgkTnCurKYfLUR13b1vxVchJzbAo8NralgQnXsOHGFYLsGcOTu/iEzYRyfAzg270zQRllVfYbcnDf5rBJcAsepy5xaUMywXY0hUdxCtlg4AH0hwit1+8+MGeGxsDLvTJh3Tiu1cbnfmiRKG5XR64+Ong/BWEJ2gOoblrjb8pLAIQgjoUCEv8PPa734AeEVna9XRtG/AtnmriWE58xdfLTtXFMyE8HEDPDr8odxTK6suxQG8IEKApZ3wWlMrANix9/PZ+QXFEpfbXVJ5Wac3NrVaFHLB0LV5q6n32XPFQkJIY4sFdj515rxaNOr5v3lkA3xNXT2cp1nSYyJgWA4CJr8k7k7NgSVfFX8zv7gE6W3SMX33vrW44uIWLnlTbPy3N24quPf5fMUVF2HhvozjguhUsC5JayeKv4EJYY12G9EerZphOc0A89DaB9wwLAcu+vjpIERjHKeJD/+aUXnpumN6VgGMEDI7v7Bj7+cw+UxNncIoCCEoVs1god7w94ysax4d/r2PUjTv99EuMAKhZbLbk27eujM1MweaV9Qbas4e9faj1DQFjQ6/58ARtV2oN/w9I+vgUY2aDk/bBUYgLCQSzJmLvPC/c4BSCyTo+ubbYBeBHH6BX8orrXqtR/j98r0H1gNH/hZEguvg29q74DzNbyCTjmms2/BWD8G/aQuERoRypAUXyOHdbs/UzFxnd8/pcxeg7lTUarCJ3y8LorN/yN7QfPvjg7kMyymKP/qsDZ//sa0dwGvuiFmXS0rHLIgYSiovq/1WcQb9iJrPLSj3eJWV3yIvJJgzGZZTOHxji0WnN+40Hy4sPw9FriarkJW2cMkZx4py8tdveF8PHr5sYCSneV11uTOOFUGGp5MWGktw8D6fr7ntF/ouEHOqppV1dvdAhg/k8Jh0NcHTnIOUXw8eE2998216PSHk7n0rxCdFiY6+oBkmYBOfz3fpWtO7cQkd3T24LS5U+wvWiwzLBXL40IOHIpxhueNF5+gmxDY8Bt6ubmlkWYYqLcaQ2DdgQ2xIQFjaFBt/89Yd2i98Pl/V5Rvw/RArYlmW+wZsXFI6eB9dSuGGQIQePCEEpK7TG682/OTxeD0eb2OLZQuXzLBcYfl5zWYO63PT/qwn/UNQzKysumzDY2XVV2IMiVxSet+AjUYOAHDhNlPq+bqGhubbaTn578YlZOeVbTOlqh2exh8W8ISQgaFhiJAo/l0p2V2/9tL3BDQfhBCPx1tTV4+tOC7caT7cYrlHG5FioVeSWiz3dpoPQ9v/5ekK++jEoG2E3Z4UvKQPF3hCiN8vv5yaeWB90t3zdHZ+Ua00BQZ4lKS1/iH7A+uTB9Yn/UN2dWuguUo9iIkgkMOv13//6TJCFvDUfPzxI3SGb2vvCsRAFIOHIkTzbg9r/iC/JYhizdNXN1gsoYYxp2YcK9KMrzAzWjWPRSG2hoh8dn4Rboo0L3ZwWrRq3uOV4N5KfRc2/mIKkbdaOoJH2WjVfFt7FxSLKVknm1otnd093964mZ1XBpny44O5A0PDtJI16WgFD1f0xRUXP0j+DKSg0xs/SP6suOLikH0sSDVBSyFawdMY3pSWpDW4LOno7oGuLq+0atIxzQvisnMFPQV/YjE1M1dwpgaK6PauXxd5QfML0sYd3pty8wfPx74Ti0gk6AYJv2HiW5pQ35FHB/gwyfot+DAJNuK3/Td2Zdn16CfQBwAAAABJRU5ErkJggg==;fontSize=15;" vertex="1" parent="1">
          <mxGeometry x="160" y="69.99" width="35" height="20.42" as="geometry" />
        </mxCell>
        <mxCell id="4DALYiYjgBZSiOKcUsGB-65" value="" style="shape=image;verticalLabelPosition=bottom;labelBackgroundColor=default;verticalAlign=top;aspect=fixed;imageAspect=0;image=data:image/png,iVBORw0KGgoAAAANSUhEUgAAAFQAAAAxCAIAAADLMBl/AAAAAXNSR0IArs4c6QAACQtJREFUaAXtWutTU9cW7x90PmSGznSGD2ecDMOtZG49NUaMQqHalKeUlodM1BaxIDJARVOgiEilPhgoXKVwxcnIVfBBCSAKSAzIM7wJCQES4snZHWZxl9tzTkAqXEl7+cDs7Oy19/6t91o7H5C/8d8Hf2PsxC/BL7tcxeWVhkvXfElucnr2XEnFLi6SYbl/hEblGMpGrZPSxX4D3uN5NT1re9z+tPDyjaB9XzAsl198RYqHENLe1bP388SKqrqhEWtbZ3fa9z8wLBeoCmswNguCQJP4Dfi2zm6G5f4ZFpeRV3QwOtUX+ImpmfC4tMemLgTJ87zh0jXA39VjxnlC/FDtXS53aka+L/C3GpsCgjTHTufP2eyIc8Q6oToUy7DcyewLKx4PzvuN5PHG64PPL77CsBzDchVVdVKSUF0yzZS/GvjGpgcKpVqhVBvvP0LwgiDkFpYzLBes0Q0MjeL8Xw281yv0vhjofTHg9b72bcsuV3J6LsNy4XFpdodTDH7F46mpNyaeyNZGpWiOfBMQpGFY7nptA67bOYP11V72nmjzOYYynudxzZrkx8YnPwmPB2uB/wqluq2zG9ftnMFmwQuCUPrLrwzLcREJI9YJGsgaeEEQFpyLNrvj9t0WAP9JePzYuExiQBO/l/FmwVteDgdrdMEaXXtXj+jCYpu/99AE4JPTc5ddLtHqnfBxU+CnZ22RCcdVh2JFER6AiMFfKL0K4EsqqnYCVOkd3h780rJLn1mgjUoZHB6T7iNOchaXlo/qswA8nSTJUr6vybcED4ndl0npE1MzcFWvd9W0ZRwefD00Yt19IJphuR1r8ISQtwEPyI/qs+iUZmpmNvFENj3zhtqjwadm5Ltc7vcl2/XP3RC8IAi1DUZ9ZoFzcYneqvfFQOqpvMWlZZx8A/zON/gNJS8IQktrx+4D0UXllS2tHY9MTx6ZnlyraTBcuhaflpl17qK82qPBY4Tned7ucNodTpoA2eZr4HK5bXaHze7weF75WiOd3/AsWGCzO549t0BVd1SfZe4ftNkddocT87nHpq5AVRi4Lel/OuF/w+HRBm/uHyypqMJdAlVhJRVV60Q+QRBGrZOFl29A8QSnBgRp1qcihAiCYHk5/O1ZA+SUDMuFaGNaWju8XmFoxNre1eN2rwCnBoZGgzU6KR6G5Q5Gp9rsDliGhY3sysamBzTfX6s9GnywRheijQnRxjQYm6dnbd19liOJJxmW02cWLC3LRP55x0LmDz9BOXH8zPm2zu45m31oxJqRV6RQqk/lFtFVJH22c3Ep+3ypQqnexUXe+Ne/p2dtveaBhONnAlVhp/OKFUo1w3K3Gptokq0dvwaPBs+wXMqp3HnHAp5k7h9U7j3MsFzpL7+KmiGDw2PaqBRIHp89tyAJIWTF4zmZfSFo3xeWl8P0PIynZ21fJqUDYf/gCC5wLi4lHD+Dcrv30IRfbflgDTwavKyE7Q5neFwaw3KhuuSpmTm8hOXlMOi56lCsLML84ivsnojeFwNIAgNIP6C7Iq0gGozNAN4X40S7/emPa+CxsFEdihVl/4QQLAkVSnX70144zO5wgugYlrta/ZtIIwghIEMRv8DOodJgWC77fKnUm3b1mD/6WMuwnO6b7xaci38a24aEa+DR4I/qs+hICPQ2uwMcLG2E12sbQD77Dn89NTMrOmnZ5cotLFco1bUNRhFf0HV99LG289lzESEhpKbeCDuLIpN05TvOrIEvqaiC82RTegwEDMvV1BsJIbZ5x6GYY0DyXc6PM3PzEN5GrBP3HppyDGW7uMiAIM3PlTdFguV5PsdQBoRHEk/SrQVA4vG8Ss/5ERZsq7dbC3Wo1QzLyTqYx6YuuA3DcmCi7U97wRvjPD3Y+3li4eUb1okpqWSmZmb3Hf4aFp8rqRApBc1WWWch3fBdZlYljwa/+0D00IhVuh3qBXog1Ex2T8TN23fHJ6dB8nS+Id2HENLW2Y1ck2U0Gryo5SS72ztOroJHMcoaPK0X6IEwlxD1Qze8DXLNF6Or6u6AXvgy+FnbfEZe0YYW4fUK9x+Z4tK+l1oWXnIVfGPTAzhP9g0EG2B0Vw/Bb7YEQiVCPuJVCCG+DN7lco9PTre0dpy9cAnyTnA9NC0hxOsV7A5nd5+luu7OZ/F6UfInWrxm87camwC87I4YdekeGGLILSyX2q30GJxByeszC9wrr98PYMGczR6qS2ZYTmTwNfVGhVK9X5d0puAiJLmyV4WotIuLTDyRfez06sMGnfniHXCwKnl4CUJPjt8RQpaWXYknshmWEwUtVJb1wfM8X9f4H7oXiDFVVstaWjsgwvsyeAy6suDpmwOXNwaPgbeq7g5NTwi599AE/kmUoqMtyLoJ2ITn+cvXaz8MDm1u7cBtkVBqL5gvMizny+C3Hjwk4dKnLHP/IGSv0pIG+8GBqjDZ3iC4pYAgzc3bd2m74Hm+qLwSHk8wIxYEoavHzEUkgPXRqRRyDQZbD54QAlxXKNVXq39zu1fc7pWaeiO8b58puChbzGF+ro1KedLdB8nM4tKyuX8wv/hKoCqMi0jo6jHTyAEAEoZoYy5WVFfX3Yk9dvrD4NDUjPwQbYzU4Gn82wKeENLT1w8eEtl/MDr1we+d2CegLwFjt3ulpKIKS3Ek3K9Lqjfe91XJQsFXb7y/X5fEsFxAkObbswbLy+Fe8wC7J2L9lH67wEOoGBuffGR60trxdGpmTio0KX6IT919FmgYdfdZpKWBLJV0EgOBL4Nfzf/+W2VsmcOT3uN/P0NHeFG/hb6MH4OHJES2t4c5v+gVmUbux5KnWzfSlgHG1MQT2bL+Fbjgr5LHpBBLQ5Tq1MwcdIoCVWHSxg4u81fJu1c8+swCCAei3s7Q6Dgil/5gikbur+ChfIJkMTrlVG2DsaW14+fKm6kZ+RApP4vX9/T1i6BKP/qr2kOLPsdQ9mnkV8AFhVL9aeRXOYayPsvgOtkEzQJ/BU9j2OzY43kFzZLm1g6o6jLyikasEza7Y8G5iPkI/sRifHI681wJJNFND36fs9llX5BWq7qd/4d1JyaROKALJHzDxG/pgdSV+gf4bRLP/8FvE2N3/LZ/AAbwq/qrH8ZcAAAAAElFTkSuQmCC;fontSize=15;" vertex="1" parent="1">
          <mxGeometry x="420" y="70" width="35" height="20.41" as="geometry" />
        </mxCell>
        <mxCell id="4DALYiYjgBZSiOKcUsGB-67" value="" style="shape=image;verticalLabelPosition=bottom;labelBackgroundColor=default;verticalAlign=top;aspect=fixed;imageAspect=0;image=data:image/png,iVBORw0KGgoAAAANSUhEUgAAAFQAAAAxCAIAAADLMBl/AAAAAXNSR0IArs4c6QAACPFJREFUaAXtWvtTE9cX7x+0P2SGznSGH3acDOO0ZEZvjWhToKHYVEBFrIAOasujPGSAilKgYJVK/aoDhVoExYlSBURK5KEByTfIIxrerBvyJG52v8Mcv8ed3U2Ugl+J/eaHzNmbe889n3PveW4+EP7Bnw/+wdiFcALPcdyf3X2JB0+o1NqIqJivD2dfv9W54vcHOz+e5x89tqYcyZu02RXnhA14t8dbWF6beqywb8A8abNf/v361hgDRZMDWQVLDIvYeJ5fdrqs41PXb3WmHMlTqbVbYwxPJp/iBDERHuB5nr/YeC0rv9zt8aL01vEpTWwKRZOckio8f6/Xl5lbFqmJ25uek1taRdEk7MGzDmf8vqOa2JQbt7t4ngf8PM//dKGBoslHH+sGHj1GpSDRN2B+H8A/mXwKl3xn4qG5hUUJPIomDS03cRCJ9wQ863B+fTiboklSRo7T5UZ41vGpqJ1fUTQpq76Ag0i8J+AFQWBYh2nQzLAOxCYIwn3TEEUTiiZ/tHeIx4F+U/Arfn9TqzHteJFub0bMnm8iomIomlxqbpNz3DwjaPPqHYmWsQm5YG8K/tn07Lb4/aBF+FaptX0DZjnHzTNis88QfSpFk7O//oZeUCzem4KH8Miwjhu3uwD8tvj9z6Znxbw2Fc1x3KmaeoomheW14vgnFvJNweOaO/dMAD49u8TjfRVUccJmIHieb24zqtTa0qo6n28lmEhrBn/m7EUAX1PfEIzpOx+/bxqit+vPX2rmOC6EMGsD73J7DmQVAPj7pqEQfN/hT9bxKaJPbW4zBgIvsx2v1+dye+QirQ38pM3+yWdJFE02rcFbx6d2Jh5qM3aKPVx9Q8sGJDlo8Jm5ZV6vT67Ldzsyv8gkZeR09faLkXMcV3Cq9s49k1y2tZ38ZjZ4p8t99PsfkjJyrt/q7DEN9pgGjXd7quuulFTWbYvfP/LvJ+sCjwaPEZ7jONbhZB3O0H5FsqvX62NYB8M6/P4Xkp9CPIbey+3xZuWXgzOSf0sSfpfbw7CO+UXm5381QdnT1GqcX2QY1iG5zq9KWrHBW8YmauobIjVxsFOkJq6mviFE5ON5/ql9tvL8ZagxYVVEVEzoVYIg8DxvHZ/69mQF5JQUTaJ1yV29/YEAP2mzPxgahkiGhY0cOUUTwzffLTtdqNmy6guK0yiaNLUacZogiDo5aPBbYwzRuuRoXXKbsXN+kTGPWveknaBoIimnkctzx3L+Dz+p1FqVWnus8HTfgHmJYSdt9tzSKpVaKy62cQkQTpe76PRZlVq7hSRc/v36/CIzYnmSeqwwUhOXV1qtUmuDJe0SPn/78dXJo8FTNMnIKXnuWEamlrEJ9Y5ExURyYuqZbm8GRROiT3302IpLBEFY8ftPFJ2J2vmVdXxKPA70/CIDhRrRp45N2HCC0+VOPVaIR6foyXDyOomX4NHgFU8YegkUTXYb0ucWlnBL7KVoYlMUEZZVX6C36+XeCG04UhMnryDajJ0APpjiUIB1Ei/BY2GjiU2x2WckTD1eb3p2CUUTlVr74OEI/Io1NkWTi43XxOEHJsAZSvQFdn72198AXtHps3JvOjRs+ehjndyYJVKt//EleDT4A1kF8myJYR2fJ2WCuFg5X2pugxGJswWZPF5vSWWdSq1tbjNK9ILeK1j7qanVCJwLTtXKVbN+zMjhJfia+tVmGEUTxZQeAwE6TOa5Izb5CCz5rvjHhaXnEN5s9pk790zFFee2kISIqJhfrlyVSM9xXHHFOVi4J+0E63CiKED4/S+yi3+ECahoyZyNelwFj7eaoomig8GGCUUTMNEHD0fAG4OUku8dX6ZVnr9sn5mTSzm3sLgz8RDMP1VTL7kUqx2b/6pV0VnIGa5nZBU8GvwnnyUp9vfxXqAHwptJb9dfvXF7enYeTp51OLHeUBSrb8CMWlNUNBp8/L6j8nuhyPNvD66Cx2NUNHjxvcB0AhOJ3YZ08TuD18qBWgum6IaWm3Avghn8IvM8t7TqtRYRCPB3e0z7jn4fQoOr4Ns7umE/xR6ozT6DeRt29RD8WksgvESoR7G+ghm81+ubnp3v6u0/eeZnyDsluRowCQR41uE0j1obW25+sT+LosnnSZmSnqd4u1Xwf7R3AHhFjhh1iT4VoyBiKKmsk9uteAMJjSeflV/uW5G+Zlti2N2GdIomEoNval3t2+wyHC4sr4UGvqKoEJW2kIS040VH8sreCDyUfujJxeK6Pd6040UQ4cVBCy9LaPAcx7W0/ynuBWJMVbxlXb39EOGDGTwGXUXwYslBy68/eQy88pbAnXsm8E+SFB1tQdFNgBAcx52/1Pzh1t2dvf0oFi6U2wvmixRNghn8xoOHJJyiyYmiM/jGTxAEy9gEWLu8pOF5HrK0SE3c0LAFsSEBbikiKubqjdtiu+A4rqruCrxCw4yY5/mhYQv0ocEAg/mzjQcvCAJoXaXWXmy85vOt+HwrTa3GLSQhRG8Y83Pd3oxB8ygkMy63xzI2UVZ9IVITR/SpQ8MWMXJQDS6M1iXX1jc2ttxMOZL34dbdmbll0bpkucGjQuG9DeSaG3btgfvw6Bh4SNA9eIvuvwZCxG2fb6WmvgFLcVy4y3C41XhXfInEAKDgazXe3WU4TNEkIirm25MV1vGpEcsTers+dEr/Vk4ehAsE+GfTsz2mwd7+h3MLS/JDk2CAR7//hXnUCq0l86hVXhoorpIPYiAIZvBv8eTl0vwvR8QRvr2jO9jWb/Hkg225UeOQhCj29jDnD/FHijA+eXHrBpMlVCvG1LTjRcHevYUxeEwKsTRE5HMLS/H7jlI0UWzs4LRwBe9b8WPvWdLbmXw6jcglr2LEsIEOV5tv7+iGZDEpI6e5zdjV2//LlauZuWUQKb/YnzU8OiZHKxkJV/DQoi+uOPdpwkHQgkqt/TThYHHFuVHrRIhsQow/XMGLMayV9vtfQLOks7cfqrrc0iqbfYZhHctOF+Yj+BeL6dn5/FM1kER3dP+1xLCKb5BWS9rN/8G6E5NIJMQFEvwDEX+SEPIeeXiAf0vH83/wb0mxm57tfwA/WqnRRtzODgAAAABJRU5ErkJggg==;fontSize=15;" vertex="1" parent="1">
          <mxGeometry x="222.5" y="150" width="35" height="20.42" as="geometry" />
        </mxCell>
        <mxCell id="4DALYiYjgBZSiOKcUsGB-68" value="" style="shape=image;verticalLabelPosition=bottom;labelBackgroundColor=default;verticalAlign=top;aspect=fixed;imageAspect=0;image=data:image/png,iVBORw0KGgoAAAANSUhEUgAAAFQAAAAxCAIAAADLMBl/AAAAAXNSR0IArs4c6QAACdJJREFUaAXtWvtTE9ce7x+0P2SGzjjDDztOhmGsmeqWGG0UCmIjDxWxPGRQWsCrIANUBAEBFaH4uCjUIvho1CKIcok8NCBpeEbDMywJeRKX3U7my/26d3eTQukg2Jsfds6ePed7vp/vOd/nyWfcP/j32T8YO7eZwDMM89uzruijGTK5MihEdTAp896jtkWv19/+sSz7+o0x/vipMZNZcsymAe90uXOKKhNO5HT16MdM5hs/3wtVaQiSOpJ+Zo62IjaWZRfsDuPI+L1HbfHHT8nkylCVZnjsLQ7gNzYHeJZl627dTT9d5HS5kXvjyLhiXzxBUln5Zbj/brcnNbswWBEek5yVXVBGkNSmB2+12SMOpSn2xd9/3M6yLOBnWfZiTT1BUlu2qXtev0GhYKOrR/8pgB8eewuHfFf0selZiwAeQVL1TQ+xExufCHirzX4wKZMgqdiULLvDifCMI+Mhu74lSKqwvAY7sfGJgOc4jrbadL162mpDbBzHvdD1ESRFkNQvD57w+6G9UvCLXm9DszbxZK46JkV14LugEBVBUtcbW8QUN04P6rw8LNowNCpmbKXg301M7Yg4DFKEp0yu7OrRiylunB6TeZKKTCBIquqn22gF+eytFDy4R9pqu/+4HcDviDj8bmKKT2tDtRmGOVdRS5BUTlEl3//xmVwpeJzT2qED8MmZ+S73B6eKAzZCg2XZxhatTK4sKKv2eBb9sbRq8MVVdQC+orbeH9GP3v9C10fujLxyvZFhmADMrA68w+k6kn4GwL/Q9QWg+xE/GUfGqciExhbt0tJytON2exxOl5il1YEfM5m/+DqWIKkNq/DGkfFd0cdatG18C1db3/Q3BDmo8KnZhW63RyzLj9szY6FjU7LaO7v5yBmGOXOusrVDJ+ZtdTu/kRXe7nCm/evH2JSse4/anut6n+t6tU+fl1ffzC+t3hFxeOD34TWBR4VHD88wjNVmt9rsge2KYFW320NbbbTV5vW+F3wK8Bp4LafLnX66CIyR+CkI+B1OF221zVjoS9caIO1paNbOWGjaahMc5w8pLV/hDUOjFbX1wYpwWClYEV5RWx/A87Es+9Y8VXrlBuSYMCsoRBV4FsdxLMsaR8a/P1sCMSVBUtvVce2d3UtL7JjJ/LKvHzwZJjZi5ARJab77YcHuQMkWltdIDiNIqqFZi8M4jlfJQYUPVWm2q+O2q+NatG0zFlo/aDyQmEGQlCCdRirztoXTP16UyZUyufJEzvmuHv0cbR0zmbMLymRyJT/ZxinQsDucueerZHLlVirqxs/3Ziz0gGE44UROsCL8VEG5TK70F7QL6Pzl1w87jwpPkFRKVv68bQGJGoZG5WHRkoHk6Pg7dUwKQVJUZMLrN0acwnHcotebkVscsutb48g4vx/aMxYaEjUqMmFo1IQD7A5nwokc3DpJS4aD19hYBo8KL7nDUEsgSGqPJnl6dg6XxFqKYl+8JMLC8hpyZ6TYGqEOByvCxRlEi7YNwPsTHDKwxsYyeExsFPviTeZJAVGX252cmU+QlEyufPlqAL5ijk2QVN2tu3z3AwNgDwXyAj2v+uk2wMs9XyW2pn39hi3b1GJlFnC19tdl8KjwR9LPiKMl2mrbG5sK7GLmfL2xBXoExhZ4crnd+aXVMrmysUUrkAtaL3/lp4ZmLVA+c65SLJq1Y0YKy+Aran3FMIKkJEN6dARoMOl527644zDlh7wLs3Pz4N5M5snWDl1eyeWtVFRQiOrqzTsC7hmGySu5DBMPJGZYbXZkBRpe7/vMvAswAAUtGPN3vfrA46kmSErSwGDBhCApUNGXrwbAGgOXgmfY/sTSKzfMk9NiLqdnLbuij8H4cxW1gkPhq9j8V6ySxkJMcC09PvCo8F98HStZ38dzgRYITya5M/LO/ccTUzOw81abHfMNSba6evQoNUlBo8JHHEoTnwtJmn+50wcet1FS4fnnAsMJDCT2aJL5dwZ/ygdKzZ+g65sewrnwp/AWej67oCyARgyNmjLzLkCEFrY/sfzqvy30vCRjPvAPnjyD9SRroCbzJMZtWNVD8KtNgfAQoRz5bPlTeLfbMzE1097Zfbb4EqASxGpAhGXZFm1b2P7E5l9bwfpAKBGq0rzs6+cvBG0f+F8ePAHwkhTR61KRCegFEUN+abVYb8XLYA/ufPrpIs+i8Jptjrbu0SQTJCVQ+IZmX91mtyYpp6gSCviSrA4YhtUxKfyIAwMKPvPIjA88pH5oyfEbx3FOlzvxZC54eL7TwsMSGDzDME0PfuPXAtGnSp6y9s5u8PD+FB6driT44qq6YEV4QVk1v6rX8/oN0LxYUy/YJx94dLzikkBrhw7skyBER12QNBMgPoZhrlxv/Dx0T1tnNwoUJ4r1BeNFgqT8KXwA8HBLB0eYb0pxirgq6QMPQThBUhm5xXjjx3GcYWgUtF2c0rAsC1FasCK8r9+A2LABZikoRHXn/mO+vBmGKau+CVdoeD5Zlu3rN0AdGrj3Z88QiXjn+SzpBz9kGWiw98amCu48fOA5jgOpy+TKult3PZ5Fj2exoVm7lYoKUBtGdVLHpPTqByGYcThdhqHRwvKaYEU4FZnQ12/gI4e1cOJ2dVxl7a1bTQ/jj5/6PHRPanbhdnWcWOFhFjwDgIdd7Os3jJnM/EXRjoitzDJ4juP6B4e+OZwOgofn3tjUZ//pCeC3PZ7Fitp6TMVx7m5NUrP2Kf8Q8QEAl83ap7s1SQRJBYWovj9bYhwZHzAMkzsjA4f0gcELVoFX1Hl0VTjsA3iO45aW2HcTU891vZ3dr6Zn5/jywwnihtf7Xj9ohNKSftAoTg3EUyR70BH4U3i4sYMsQ3zsJWkuer1Z+b5b+oNJmeKQ6X/AS85fn06+h3/w5Jm/RVe78+A+1DEpo+PvxDTXFfzSEmu12SVrexjzB/gjxWp3HgxZxKE0vq/li2D9wPNLNxgsISvoUxNP5vK9NA6Axsp3fsZCRyWcEPxjR0Bt/cBjUIipIbIyPTsXcSiNICnJwg4OW/nOg0M5mVOM/2RgGGbB7hAY73UC71n0Yu1ZUNsZezuByAVXMXzY0F7JzgNywe3twO/DJ3OKBQXodQIP6RMEi7EpWY0t2vbO7qs376RmF4Kn/OZwev/gkBitoOdPwTMMU3LpWnFVncDRtnboxE5k/cBDiT6v5PJXUUdBCjK58quoo3kllweNo4IDKcCMr4HBLy2xt+/++mX4oas374DrBRGXXLoWHp9WW9+EdKCxfuAFC6/q1et9D8WSts5uyOqyC8pM5knaaluwOyAewUt7jLUEDX7Av5nAY94pwEOQFCZI/MRGPGzLNrU4B9kcO7+qY7Lywf8Hv3JZfVoj/wDK8Xq3ueVXyAAAAABJRU5ErkJggg==;fontSize=15;" vertex="1" parent="1">
          <mxGeometry x="166.5" y="239.99" width="35" height="20.41" as="geometry" />
        </mxCell>
        <mxCell id="4DALYiYjgBZSiOKcUsGB-69" value="" style="shape=image;verticalLabelPosition=bottom;labelBackgroundColor=default;verticalAlign=top;aspect=fixed;imageAspect=0;image=data:image/png,iVBORw0KGgoAAAANSUhEUgAAAFQAAAAxCAIAAADLMBl/AAAAAXNSR0IArs4c6QAACoxJREFUaAXtWutTU9cW7x90PmSGzjjDhzNOhuFaM1dPiVEjUBAbeYpYBBnEFrAIMoAiCAiISIrKRaGKoNhUiuCDEsFoQGJ4RsObkBAgIZ6cc4dZzGJ7TpLWwUG5vXzI7Ozstff6rbXXc/MV/w/+++ofjJ3fSuBZlv3jcXfE0VMSqdwvQHE4Mf3e7x0rLpdYf5PTs+fL1duZcIpm/rUvMre46q15Urxsy4BfWnZkF1bEn8zu7tWPmsw3fr0XqFBRNHMk9cycxUoCe67rCzqYoK5vGjWZu3v1KT+fo2jGXxbSoungOI5cuTXAcxxXe/Nualbh0rIDuTcOj8mCYyiaycgrRf1PTM2ExqY80+pwGcuyxZevAX5dnwHneX6LXHurzR4amyILjrn/sBO1x3HcpZp6ima27VD2vnoNqO60tvkFKE6cLiCvg8k8AWI6lVOEYtoy4IdG38Il3xNxbGpmFrXX3aunaIaimfqmBzBZUFYDM+r6JlzmcDiTMwsomtmnOk4KZWtce6vNfjgxnaKZqKQM++ISojIOjwXs+Z6imYKyGphsbXsskcolUrnm0VNcxnFcXkk1RTOBCtXQ6Fuc3xrgeZ63WG3aF3qL1Yas8zz/TKsDPd9pbYN5t5vrfzPU/2bI7V73bcsOx/H0PIpmQmNTrDY77rAGfsXlamjWJKTlKCOTFId+8AtQUDRzvbEF132BA7R5aVCEYXDEB4do87nFVSzL4so18O/GJ3eFxoEU4VMilXf36nHdFzgwmSeYsHiKZip/uYVeUMwnx3GVv9yiaIYJizeZJ8gFa+A5jluwL1qstvsPOwH8rtC4d+MeEgOS+DOOWZY9X66maCa7sIKMf2KWjMNjgQpVoEL1XNcn+FVo8+1PtAD+eHresmM9qArIPu9XjuMaWzQSqTy/tNrpXPHBzPSsJTz+pCw4RhDhgUQIvqiyFsCXq+t9bPp5f3qm1dG7w65cbyQNWMzS0rIjNatQGZk0MvZO/Kswzi8uLR9JPQPgySTJI+XnmjQOjzFh8Y0tGvTnDodzcWlZwA8kdocT0yemZuAnt3vVtEl5faD5UZP5m/1RFM18sQZvHB7bE3FMkKWr65swyQGcgFyQ9k/NzCak5XhNctDgkzMLHA6nQJaf/ev0rCUqKaOzq4f07SzLnjlf0f5Ei+yBR0jNKiTTIZ7n+98MJWfkk3fkA81/yQZvX1xK+flcVFLGvd87nmpfPNW+0Dx6WlZdl1dSvSs0rv/NEIDnOK6zq+eb/VGl1XWdXT2w8lpDS/Hla3EpWWfOV3i+9mjwGOFZlrXa7FabnSRAAXsbOBxOi9Vmsdpcrvfe1ojnfZ8FrguckfiTTPifaXX+shDxGpghE/4PHB5p8IbBkXJ1Pe7iLwspV9f7iHwcx701T5ZcuQHFE5zkF6DwTcXzPMdxxuGxH88WQ05J0cxOZXRnV4/bzY2azM91fRDJsLDxiEr1w08L9kUQKBY2Hle2tj0m5b5+7dHgAxWqncroncroFk3H9KxFP2A8lHCKohlBOY27zNsWss5dgnLiZPaF7l79nMU6ajJn5pdKpHKy2EYSGNgXl3IuVEqk8u1M+I1f703PWvoNQ/Ens/1lIafzyyRSOUUzmLQLaD/J13XwaPAUzSRl5M3bFvAAw+CINCjCYyI5MvZOGZkEyeOr10Yk4Xl+xeU6lVMUsOd74/AYOQ/j6VkLFGpMWPzgiAkX2BeX4k9mo95IT4ZrPtVgDTwavEcNQy8B6uGpmTk8G3spsuAYjwgLymro3WHojZAQbdhfFiKuIFo0HQDem+Bwnw0O1sBjYSMLjhFk/zzPY0kokcqfv+yHI7HGpmim9uZdMvzAAtDhPtVxUl5g51BpUDSTc6FS7E11fYZtO5QUzZDGvEGcHsnXwKPBH0k9Q0ZCoLFYbQeikkEbaITXG1tghnS2eMayw5FXUi2RyhtbNAK5oPci209IyPN8Q7MGdhZEJnLNJxmvgS9XrzbDKJrxmNJjIKBopqFZs9pamLcFR58Akp9yL87MzUN4M5kn2p9oc4urtjPhfgGKq3W3BYplWTa3uAoIDyWcIlsLgMflep+eexEWoKA/CVTxJqvg8VZTNOPRwWDDhKIZMNHnL/vBGwOXgs+ggwklV26YJ6bE503NzO6JOAbrz5erBZeCFKtHZyHecCMzq+DR4L/ZHzVqMou3w3uBHghvJr077Pb9h+OT06B5q82O9YZ4H57nu3v1KDWPgkaDF7ScPO62wclV8KhGjwZP3gv0QJhLCPqhf8kNSs2boOubHsC98Gbws5b5zPxSHxYxOGJKz70IGVrQwYSyq/+Ztcx7ZGwVfGvbYzgPe6DkUmyAkV09BP+xJRBeIpQjeZY3g3c4nOOT051dPWeLLgMqcD0kLcSRFk1H0MGE5t/awftAKuGxjbOW3t5pbQPwHnfEqEv2wBBDXkm12G4FPJFfUfOpWYXOFeEz25zFuk91nKIZgcE3NK/2bfaqErMLK6CB75HVfsOQMjKJzDgwoSCZR35WNY+tf/GOS8uOhLQcimYEQQsvi2/wLMs2tf5B9gIxpnq8ZZ1dPRDhvRk8Bl0xqzzPF1XW+stC8kurya5e76vXsOelmnqBnlbBY+AVtAR4nm9/ogX/JEjR0RY8ugkQLcuyV643fh24r6OrB4WNhGJ7wXyRohlvBu8DPD7LCGIWkoi7kqvgIQmnaEbwlGUYHIEqTVzSYD/YXxbisTcIbskvQHH7/kNS3izLllbXweMJ3k+O43R9BuhDgwF682eIRKx5kiX9wHqVgQ77QFSy4M1jFTzP8yB1iVRee/Ou07nidK40NGvgfdtbbxjNSRmZ9EI/AMnM4tKyYXCkoKzGXxbChMXr+gwkcjgLCXcqoyvUN282PYg5cfrrwH3JmQU7ldFigwcq+PQBHrSo6zOMmszkoehHxF5mDTzP830Dg9/FpYLg4fNAVPLjP3t9xG2nc6VcXY+lONLuVSU2ax6R76EkAOCyWfNoryqRohm/AMWPZ4uNw2P9hiF6d5jvlN43eMEp8BVtXvwAtQ6e53m3m3s3PvlU+6Kr5+XUzBwpP4/7wqTL9V4/YISGkX7AKC4NfNCSP2Eg8Gbw8GIHVYb42pNb4XjF5crIK6Vo5nBiujiV/gA80mz+gIzwgn4LyczHah7Ch7fW/aaCd7s5q83usbeHOb/gFZlE/rGaB0cWGptCxlpyw80DT7ZuxC0DjKkJaTlklCZ5/Sjw8FAlaN0Ldts88JgUYmmIrEzNzIXGpsC/zYgbO7js74OHgJKWXYSte5ZlF+yLAue9SeCdK67UrEIIB4LezujbcUQueIohYcP479g8IBdE6P43Q2nZRYIG9CaBh/IJksWopIzGFk1nV8/VutvJmQUQKb+LS+0bGBSjFcz8JXh4qCqqrBUE2vYnWnEQ2Tzw0KLPLa76NvwoSEEilX8bfjS3uGrAOCK4kALM+NU3eLebu3X3t3+HxF6tuw2hF0RcfPlaSEyK4MXig0cLPOALHLhc76FZ0tHVA1VdZn6pyTxhsdoW7IuQj+CjPeZagoG4d7J5mt+ITLHuFOChaAYLJLKwES/btkMprkG2BviNCM4H7f/B+xDO//RP/wVbfEy89wGAvwAAAABJRU5ErkJggg==;fontSize=15;" vertex="1" parent="1">
          <mxGeometry x="480" y="239.99" width="35" height="20.42" as="geometry" />
        </mxCell>
        <mxCell id="4DALYiYjgBZSiOKcUsGB-70" value="" style="shape=image;verticalLabelPosition=bottom;labelBackgroundColor=default;verticalAlign=top;aspect=fixed;imageAspect=0;image=data:image/png,iVBORw0KGgoAAAANSUhEUgAAAFQAAAAxCAIAAADLMBl/AAAAAXNSR0IArs4c6QAACedJREFUaAXtWutTE1kWnz+oP6SKqXKLD11WiqLU1I49RnSicUBd5KEgDg8tEAexFKSAFYmCPHzAiLoojKMw4mRkEF+sEUQDEgMCkSCP0CQE8rLTvZs67LH3dieSHSujzvpBb3fu4/zO63fuab8Q/sR/vvgTYxc+JfB+P/+kf2Bf/vGomLholTYp63C7vtvj8QazH8/zz1+YU/cfGbNYZed8MuA5jqs6fyU+Le+Rod+5uMTOO0pPn6doZldmwYyNRWw8zy84F82vxn/+tTt1/xGFUh0blzgy9honiAefDPjunt6/rN1S23gVTc3OO7am7Kdo5nBpldfnA1RutyensBz8orCsiqKZzwF8Zd1FimYomunovC/GSdHMV9v2TExOiU0K48d9xs8E/KXWdopmFEq1/u5DAvzGHfumZ22fM3ivz2d4ajQOmf1+HnDOsfbNiVkUzeQUlrvdns8ZvBRbd0+vQqmOVmkf9xmlvwqCsFK39/p8LW36jIPFmqTsuJ3fRcXEUTRzqbVddtM//CXP8y9HxjRJ2dEqbbu+m+eXfYEQbKXgJyanvtq2BzIK/K1QqoNplDgjko92hzM9r0ihVFM0E5+WNzo+EeL0lYIHemTtjlt37gH4YCk0xGGR+WlxycXaHROTU4VlVVExcTWNzUh+hAArBY/Luh4YAHxWQanL7cb3H+Hg36VOel4RRTOHjuuWXDKihg0e6bSmsfkjBEyI1HzjNvAfkr94QnjgF5dcabnHwPKPDP3ijf7wsc/31u5wIs+BPACPopmCklM+31tCyPDAj1msa79JDlEzEbtH7HHGxiak51E0c/REDVaySGbBqD488BjwwcqGiKElDkILb0nOYe0O/LWj8z746YmaRinhhQf+ow140/CocsMOwvI8z59paKZoZtUaTd/zF6gRHIQBHgMeGZ7jOLvDaXc4OY7DHd87cLs9rN3B2h3SIAyxNvRZHMcVn6zbsTff+mYaNzG/GldtTaVoRlffJJYQuHDGxtY3tYBqWtr0MzaWtTuIKvjdlVYc8Kbh0ZrG5miVFpwqWqWtaWwOwXw8z7+2Tp0+dxmkgVVAwiFWCYLA87z51fih4zqoKSmaWadJudfT6/fzYxbrk/4B5PAll7tEd3bVGk1a7jFdfVNRRe1qJmE1k/Bj+69i5IIglFc3gADSv1va9Kg7QRB1cjDgY+MS12lS1mlS2vXdMzbWOGTemZFP0Uzu0QpZOp13LBz9+xmFUq1QqvOKTj7uM86x9jGLtbCsSqFUiy/b4oMFQXAuLhWfrFMo1auZhMs//jxjYwdNI+l5RdEq7ZGyaijjfuroFK+anZvv6Lyvq2+qaWx+3GeUlUc8P/T4neUx4CmayT5cOu9YwJUYcnU/XCPyyuj4hCYpm6IZJj79+QszLhEEwevz5RdXxmz8m/nVuPg9jGds7K7MAlg4PGrBCVi6gN26Hhjwpw8+WAaPAS9rYbvDuW33AYpmNidmTc/OoRAYdaqtqbIIy6sb6PXxgy9HcAkMllzu3KMVFM3I3sna9d2APJjiiN3+58dl8HixUW1NtVjfENu53O6sglKopZ48G4Rf7Q4nmI6imYtXbxIeAV6dnldE6AvivO6HawCv+GQdEbGCIPQPmFat0VA0k/jd9wvORUKYD/i4DB4DPi332OKSiziAtTu2JOeAuBiE0FqhaEa2keJyu0tPn1co1a3tekIvI2OvY+MSQ1BUS5sezjp2olaqGkK23/O4DL6mMUCYFM3IlvRIBBTNQMLE5iFFM9+XnJqdmwd6s1jfdD0wlOjOrmYSomLiLly5TkjPcVyJ7iyctTMj3+5wEtL7fG8LSk4RiibmfKjHAHj0aopmZBPMI0M/SEPRDFzynzwbhGyM78WDDdszTp+7LOZkFHd61rZxxz6YLFuWoVplkwXu80EGAfAY8Gu/SZbt76NfYAZCz6TXx1+/dWdyagYsL717EFI+7jOi1mQVjQG/bfcBqV8Qu/3OxwB4NKNswIv9AjMQFhKbE7PmWPvKhUCtBVM03FIpmgkW8DZ2vrCsClOP9OjhUUtBySmo0DZsz6i+8A8bOy+dtlzk4PWgvLpBOslifYN1G3b1EHy4VyB0ItSj+MRgAe92eyanZu719B6vrAdURK0Gm/A8367v3rA9o+2XLsg+wEexcYlP+gfEB8E4YPmfOjohCGV3RNZl4tORBRFD6enzRDKXniF+g5bPPVrh8S5/ZsEJ2I0mAr6lTa9QqjclZhZV1AJTyIo6aBrRJGWLKw4sKMTC43EB8HhhlO645HJnHCwGhheTFjpLaPAcx93o+E38OQU5VdbL7vX0AsMHC3gkXamogiBU1l2MVmnLqs6Ly96+5y9gzzMNzYSdAuCReJtv3EatwKDrgQHyE1GiYyzIpglYy3HcuUutX8Zu7u7pxW1xoTResF4MEfAhwMNXOnBhcSrFJdKuZAA8FOEUzeQXV4r7JKbhUYh26ZWG53mo0qJV2v4BE2LDAaSlqJi467fuiPUNH1vhExr6J8/z/QMmJj4d+TJYPkMkUsuLRTIOvbtlYMImGiHvbnWgdYVSffHqTY/H6/F4W9r0q5kEimaKKmrFXoTwMJw0SdlPjUNQzCwuuUzDo+XVDdEqLROf3j9gEiOHtbhwnSaltvHq1Ru3U/cf+TJ2c05h+TpNCkUzRMDjiYIghAAPVuwfMI1ZrOJDMY9Is0zA8vBnYGj42z25qHuKZrYk59z/Zx/RM/zP9MC/Ho+3prEZr+K4dlNiZpv+rtiJxKtAyjb93U2JmRTNRMXEHTquM78aHzSN0OvjQ5f0ocETp8AjxjxSFU57B14QBL+fn5icemh42tP7bHp2Tqw/XCAd+HxvjUPmh4anDw1PjUNm6dVAukT2DRJBMIZ/r+Wl23p9vsOlga/0uzILpCXTf4GXLo7YGzHDyzbhQZJwLQ/0oUnKlv2wFVHwfj9vdzhle3tY84f4jxThWh4S2bbdB8RcKzZn5MCLWzdYLKEoyKkZB4tl82u4lodWf1rusRDVd+TAY1GIV0NEPj07B50i2cYOTlu55YFQDhZVOheXYDnHcQvORSJ5Rwi8x+uDvpW0Fzb2ehKRh/jYvnLLA3KCoQdfjhwsqiRayRECLwhCR+d9KBaTsw+3tuvv9fReuHI9p7AcmPLbPbkDQ8NiI8uO35vwOI7T1TdV1l0kiLbrgUFKIpEDDy36Et3ZrxP2ghYUSvXXCXtLdGeHzKOEQ8oif6/b+/38tZu//FW7+8KV60C9oGJdfZM29UBj8w1i28iBJw4O69HnewvNku6eXrjVFZZVWaxvWLtjwbkI9QjP863tgcsf1lrEQFzww+mfBni8dxJ4xN9nxRcb6bRVazTSO8inAT4sN1n55P+DX7muPq+Z/wJi2XgcF3B4QgAAAABJRU5ErkJggg==;fontSize=15;" vertex="1" parent="1">
          <mxGeometry x="365" y="311.25" width="35" height="20.41" as="geometry" />
        </mxCell>
        <mxCell id="4DALYiYjgBZSiOKcUsGB-72" value="" style="shape=image;verticalLabelPosition=bottom;labelBackgroundColor=default;verticalAlign=top;aspect=fixed;imageAspect=0;image=data:image/png,iVBORw0KGgoAAAANSUhEUgAAAFsAAAAxCAIAAAA6O0LyAAAAAXNSR0IArs4c6QAACclJREFUaAXtWutTE1kWnz+oP1DFVrHFhy4qlWKxUjvTa8w6CC6sGlQURgXFAp1BHQEpZFAyogiKRqMUCuMo2WVFKQcYQMIjCjiAPCUQQmiSCRBoOn3X7KGO1+6G2V3drSLIB+r07Xtvn/O7533zGfn09z4Cn73/+OmJbHhEAgGpw957+OS5cK0hUhe/N/2Utb5xaWl5rbOVJOnlq8HkjDOj4w7VORsbEVEUSyoqE1KyWm123/wCP+ctuFTBsFxSWrbLzaPAkiT96psfHB7725PG5IwzYRp9tME4NPoGJ9DExkaksa3z91t2XDXfQ6Xg57xx+zMYljtVULIsCCCq37907HQhaNDp8yUMy4UsIsVltxmWY1iurqGZFp5huc93HpyYdNKHD3R7V08oI3KnxsqwXJhGX/9TiwyRbbsOT8+4Nx0iy4Jg6+7p+WUwEJBA+Fnes92YzrDcsdOFfv/SpkNEKXBjW2eYRh+pi2/v6lG+JYSEgtWIolj7+Fnm2Quxe48adh8J1xoYliu8fFMmsCRJA0OjsXuPRurirfWNkrSqNbJpoYCIx+vbeeA4eFD8j66UEOLx+lKzcsM0eoblElKyRsYmZCjQj6GACGQTvMfb1NbJfpHAsBz7RULfwBAt5/zCIu/xTkw6T58vCdcaSs1VGI/paSFiNSiSvbc/IiaWYTnjkW9+9c3jOE28zdNSs3IZlvv6nGlh0U+/AjoUdASlqq6tB6vJKboqiiKOy4iqh/+AkExbFs4JHUQEYSU7/3tA5Me6BpBQEFY8Xh+GXhgEmRmWy87/XhBWEAv6bSjkrJieoxNxufnE1CyG5c4WlWLCjp5irZQkdHQEncjOA8c9Xh8t+Y59x3iPF3WhrqEZVKmo1KyMwaGDiNKJ9L8e0WzdJdMRSZKu3KxiWC4iJrbr5SuECYkPRUQQVniPl/d4VTNi+AxEPtUJfv8SLFfaM7KoSgQC0tssg/d4YSHtRKpr62GJKIp5F8t2fXXSMTWNmwwOj+nikhmWM5VbaO8LTLrcfLmlGvCqrq13uXmlaOrdgJnZuVv3Hv3ZmIYZUZhGf/a7K25+Dr9NCFkWhEvX70JqFK41FJfdhiwAujJJadnwimG5cK0h72KZbDm9FdJufq643BLFJcKnIblwOF1Q46MTgfkLi/5807WImNiUzBxTuSX3wtUoLjGKS/zB+oSGgxBSePkmyiIjEGLYU47I0tJyqbkKMuXkjDPPfra53Pyk01VSURmuNSSlZYMNE0IkSbp971G0wdhi637a1AaZwu17jxb9/qJSc0RM7NfnTF0vX83yntrHzyJ18dDIweUIARKBgFT7+FkUlxgEt9wy7piadLpM5ZYwjT5ufwbsH7c/g5975zJg7czsXF1Ds6ncUmquau/qUU1D8Cu/SbyHyCzvScnMYVguiktsaH5OuyW0z1abHTYdd0zp4pIBYN7j3bHvGMNyurjkQyfyYvceHRwew2/jWrqRgW+BgG4YFGlPG9vw06IoFpWa8VTXz0Rke/53j+8QwWAWqYtHselNwbc9+9kGg3dqrNuN6dMzs4SQ6Rn3tl2HgW9dXDINB0xGv1hqrqL3BFqSpBprPZhYSUWlTOHRgzIsJ9Nw5VYfPrKKyLIgnCoIttsYlsu7WCbjiRACbkyzdVf/6xFCCPTp8MQwNEbExDa1dSrZgjySYTlVRNq7esCsDLuPTE3PyJZjy0PmRGTTPtbjKiLQVlAtosCDWqqtYRo9OvCJSefnOw9imowCn8wrppMl4FIUxZyiqwA3ppsoAFYiDMtduVmF9oIT+gaGoMBTdSI47WMRQUTgwIHjpLRsx9Q0hMxJp6vF1n3p+l1dXHKYRp9vuoZOKxAIdrdBlejQiBjR/GG6GRETa+/tp18RQtY/DEIIWhyqpGyHj/sYRGR03LHly32AiPL/H7bvzTddGxweU54esIICr6XVaFPKQ14WhJN5xfBR1YqW1q//gxMh5F83WFgaMSx3o/LBuGMKdMTj9SkdivJAUGBVkQgh5qqHILMyrQbrW+stIQThVtUvJTMfPhLUEVRL7bY9yjDxm9/A5apaPb+wCBE9TKNX9j47XvRhFqdqcf++E1n0+y9XVJrKLWsx7HS5i0rNkPuB4r9xqFxfvIeIrGRaa2t6nHYiSq9JCEENUpoMXa2tZXEIt2ppLwgrLjff2vHi0vW72m17VPuvwG2HvXfrXw+Zqx6Ojjvau3qOf/sdw3KqHdkgIlgspmcXLPpV+k40BDIatVpVJDo3wzjCe7x/OZh5zVJDI7LdmD7Le2SbqzoRa32jrPz9Y/yB0+dLIEVUdqQJIVPTMzsPHKeTLFEUTeUWAEXm7IOI4DGuj4gkSQ3Nz3t/eU3zjWtVnYgqXl0vX0VxicAHLldVT1yOTgRUUqkvGC5VEfmxriFca8g4U0iDDjk3w3KyjCGIiMfr233oJMNya92DQRVjrW+M1MXfqbHSiKBWqzoRFBjxglTw0Ik8COTTM7Nw4aREBI+RYTnUIPDEyqCzPiJY5pmrHiLzuAQ3h1dBRMBwwjT6MI1e1b2B0/pd9HZZik1rtepCdJwFlyogeDe1dUbq4rEUQLOSGZ0oindqgjkhhCHEy1rfqItLHndMAdv4H8VT1ZG6hmaQDi9D4YzhhwSyDuMqIngg0QZjQ/Nz6Er4/UvjjqmyW/e12/ZEcYlPfmqVdTTxJkW2KTKKKvBt4RVBWGnteBFtMGLiC9Ownjp6qmB6ZjYQkEbGJlKzcqO4xL8/bYLearTBODg8Njw28afEr8pu3VdmRusjEghIfQNDfQNDNP+Lfn96dgHDcuiVgJ9VRKBy+cH6BBsTcDhQzt6ofKDqcR1OF5eQyrBcVu5F1Y4RIaTVZsc9w7WGG5UPlDmOm587kVuMGsGwXGpWLoTGt72IpLRsZGatO4f1EcETogn0I/mmazRL7xCB2aIovh4Zb7F1t9i67b39Hq9PeSC4ryRJEMxU8cJpS0vL9t7+9q6edZoj4M7au3pabN0Op4v+aCAgTUw6W2zdQ6Nv6EPG/elCRNVq6JlAS5JUdus+w3JcQqrMBuWIKBdviJH/VEcGh8eiDcZog7HD3isTcDMiAp5LF5csy0QAmk2HyMKiH35msNaF+eZCBEJqUlo29qXotsam0xGAIyUzh85cp2fch07k0SObRUeglZt59oJvfoF2pX0DQ8dOnZ9fWMTBTYGIJElNbZ1bvtxXUlHZ1NYJuYWl2moqtxw8flZWf2xsRERRhKu/l68GofZNyczpfz3Ce7z0bwZabXbobGOmRxN0sbPaQ0OF2XDE0OibaIORFg9pLIXWv9BTXiFtbB35XxzhJ0TkqH5CRI7IPwHdyJMZTDIF9wAAAABJRU5ErkJggg==;fontSize=15;" vertex="1" parent="1">
          <mxGeometry x="530" y="311.25" width="35" height="18.85" as="geometry" />
        </mxCell>
        <mxCell id="4DALYiYjgBZSiOKcUsGB-73" value="" style="shape=image;verticalLabelPosition=bottom;labelBackgroundColor=default;verticalAlign=top;aspect=fixed;imageAspect=0;image=data:image/png,iVBORw0KGgoAAAANSUhEUgAAAFsAAAAxCAIAAAA6O0LyAAAAAXNSR0IArs4c6QAACaRJREFUaAXtWv9PU1kWnz/o/dCETUz44YU0hHXS7PjW0nWY4sKiRazKqIAQ0FlQEcaggjKgCIpWq6QK4yA4jlVWgQGkAlXAReRLqxUo5dFOgZb6+u4ue9jj9fW1s7u6k1Dkh+a8+/Wczz33fLt8Rj79vY/AZ+9/fvoiax4RQRD+1tmb9vUhhVIdE69Jzyq8c799ORAId7aiKD57PqrPPTJpd8iOWduILC75SirOZxaU9PYPTtod17+/k6DRMSy3J//YHO9GgUVR/MW7MDpuu3O/XZ97RKFUJ2h0Y5OvcABNrGFERFG8euN2fnHF4pIPRRodt6m0eoblisqqUVN8Pv+BwydjVck7sosOn6hmWC46EXF7vFt35am0+h8fdIiiCKCIonjusolhuQ0bk/qfPUekkOjtH4xaRMYmX8EdSUzbNzPrksjMsJyp+SdsRCKaEXF7vOlZhQzLZeQUeRcWUebRcVt84naG5U6evYyNSEQzIoQQ3u2xDAzybg8KTAjptlgZlmNY7oe7bXQ70NGAiCAILfce5hdXJO3I0WzbHxOvCXf+hBC0I8rNaSMvJ6ITEbCgcOz4e7etM1RaQojdMcWlZDIsV3vlJppbemQ06AhEE7zb09HTx25KYViO3ZQy/GKMlhNoQRDKawwMy5VUnKddMj0yGhBBeaxDIxs2JjEsp9v/11+8C9gOhCiKTa1mhVJ9orre71+W9OJnVCHS2GKGW3Os/LwgCCgkEN0WK7sp5eK1ptAuemT0IBIIvC08/l04JzI6buNSMptazcHgaqjm8/kXFpdoLICOHkT4eY92Z66sERkdtyWm7Ws1t9Om1GBqjvIIDY3I1l15bo8XD9/p4jNyijp6+mg4BEE4Vn7+4c8WHIZE9OiIrBHxLizmHT2VkVN05357l2WgyzJgftR1tr6hrKr+i627Zf3RhyISCLzl3R7e7fH5/AizhFhYXAo3wOfzw/RA4K1kVuTPYFB0e7y82wMTaSPS2GKGuYtLvvziCoxQJIQk2QEmnS6+ztgIeWBji9np4kM5l68GzM7NX7lx+0+6LNxGoVQXnzrn4udpSZYDgaqL1xVKNcNyMfGaM7VXwe1BVSY9qxC6oLf0dK1kOr0U0i5+/kydMY5Lha1j4jU1BpNj2hlqRDDTQyZpQuKhT569TPfSNEIMPEgR8fuXawwmiJT1uUce/mxxuvg3087q+gaoUOEdhvJEgkbXZRl40NEDkcLVG7eXfL7yGsOGjUnffFvZ/+z5HO9uufcwVpXMsFx6ViFORwiQCAbFlnsP47jUFXDrjHbH1JtpZ2WdUaFUa3fmwvranbn8/HtZDE7/WMR7iMzx7j35xxiWi+NS2zof07YK84VuixX2tjumVFo9AMy7PV9lHGBYTqXV7z1YmrQjZ3TchiziXIblwkXfgiBU1zcolOpYVfKD9h7cGsNQOFXZSAQ3+ijEO0ScLj41s4BhuVhVMopN7wG2DQ34tabWLbrsmdk5QsjMrCsxbR8wrdLqaThgBbSLNQYTvSbQGG4yLFdd3yAJsUZeTig3p8HiEg0PXerDW1YRWQ4EispWym0My5WerpXwRAgRBKH0dC0mlFCnwxND17hhY1JHT18oW6bmn2BxWUR6+wfhWmm27Z+amZVMn+PdW3TZspGIZORH+VxFpL2nD6ygbBK1HAgYG1sVSnVlnRHAev1m+outu/EKoMCHSs9gdRP5g+gAEAmtWXgXFjMLSqD33GUT3hecPvxiDBK838CIEPKv1wk4cOApPavQMTUDLvPNtLPLMlB18bpKq1co1ccrL2BCGQyuVLcBHdo1IkYoz0pd59/h5oaNSdahEbqLEBL5MAgheONQJSUrfNzPFR2ZtDs+/zIDEAn9/f2WHccrL4yO20JPD1hBgWX1ixCCdyr0kJcDgUOlZ2BTib+ExWn9+g2MyKqOQBgHbF1quGV3TIGOuD3eUIMSeiAosKxIhBCDqRkWL68xSGCF2xeu91f1K5SZD29Z0RFUy/jE7aFu4lf3wOmyWr2wuAQeXaFU9/YPSlZ78nQYozjZG/efG5Eln+9sfUNlnVGyBX5OO13lNQaI/UDxXzmmsReJ9xD5KuOApIqL48IRtBEJtZqRrwwhBNUz3I1DuAuPfxeaCgQCb50uvvvJ06qL1yPU3wkhT6xDm/+y12BqnrQ7evsH846egjhDkjGv3pq7bZ2gt9mFZUu+d+9j4VCg2yMbETo2Qz/Cuz1/3p1/wdhEI7JFl02/S8IWskak1dyO6S8A+ofkXYdPVEOIKPsiMTUzu3VXHh1kCYJQWWcEUCTGfkVH0BBERkQUxbbOx0N/f0kjgnNljYgsXv3PnsdxqcAHTpdVT5yOTgpUMlRf0F3KIvLD3baYeE3ukZM06BBzMywniRhWEHF7vNv2HmJYTpIv0pKLothqbo9VJV9raqXbUatljQgKjHhBKLj3YCk48pnZOYi+QhHBY2RYDjUILHGo04mMCKZ5BlMzMo9TcHHoWkGEEHK3rVOhVCuUalnzBkbrdwlbJCE2rdWyE9FwllXVg5fp6OmLVSVjKoDXSmJHBEG41rQSE8J1Rrxaze0qrd7umAK28RfFk9URlM78qAuniKJYVlUf+ga8iggeSIJG19b5GGyYz+e3O6Zqr9yMT9wex6Xef9SNVUxYF19Swj21owocPXkuEHjb/eRpgkaHgS8sgvlUTlHZzOxcMChO2F5nFpTEcak/PuiA2mqCRjc6bhu3vf5j6teyDzGREQkGxeEXY8Mvxmj+l3y+7MIyhuXQKgE/q4hA5vJ9630sTMDhQDp7qeGWrMV1TDvhuaig5HS4klK3xYprxsRrLjXcCo1xXPz8wZIzqBEMy2UWlIBr/GctAh53gZ9vvq3EuBlPmxASGRF6JNJoR45XXqBZeocIDBUE4eWEHSp01qERt8crialwRXhSBGcmixeO9PuXrUMjvf2DEYojYM56+we7LAOOaSe9aTAovn4z3WUZGJt8RR8yrv8/ICKKYu2VmwzLcSmZkjsoRYTeZg3R/62OjI7bEjS6BI3uiXVIIuZ6RAQsl0qrl0QiAM26QwTq1Uk7ciZsryXasR4RAZeanlWIdSm6rLHuEAE4JP/GODPr2nuwlI5l18utgVJufnEF/f9ZhJDhF2MHik7QL8TrAhFRFDt6+j7/MqO6vqGjpw9iC2Nja2WdcXdesST/WNuICIIAT3/Pno9C7rsn/9jIywne7XF7vBi8dFusUNnGsJMm6GRntRoga3LXRGOEZz1MhQghmOnRQCAtycjWto78P47tEyJSVD8hIkXkH+iSlbTBm2qXAAAAAElFTkSuQmCC;fontSize=15;" vertex="1" parent="1">
          <mxGeometry x="325" y="239.99" width="35" height="18.85" as="geometry" />
        </mxCell>
        <mxCell id="4DALYiYjgBZSiOKcUsGB-74" value="" style="shape=image;verticalLabelPosition=bottom;labelBackgroundColor=default;verticalAlign=top;aspect=fixed;imageAspect=0;image=data:image/png,iVBORw0KGgoAAAANSUhEUgAAAFsAAAAxCAIAAAA6O0LyAAAAAXNSR0IArs4c6QAACZtJREFUaAXtWv9TU1cW7x/0fsiMO+OMP7xhMgxrJ7P11ZClFFxYNIioFEWUAe1Cq0AdRJAUFEHRKMpEpRaNtaJUgQISgcgXi3wNGoEQHi8NkBBe3t1lDnu8vjwirEw7YeUH5rx7z/1yPvfc8+WefEI+/r2LwCfvfn78IiGPiCiKvzS3J3x1TKXWbgrXJaZl33vYuODzBZ7thMNZVG4M4+IZlvtr1O6Thguv7BOBbKGNyNy8J6/4fEpWXntnz+iY/foP9yJ0eobl9mfmTvMCLe0za+/2f6YaTXWjY/b2zp6M46cZltuiiTXXN0qSRHOGMCKSJF29cSfzRPHcvAdFGhi2aWKSGZbLKShDTRmfnNqxN6PVYkU2URQNldUAirW3H9sJCeVbI7jcO/ZmaGKSf3rUhOcsSdK5yyaG5TZvje7sfgGi/ni/YVO47si3hbTijNnHAbtj+SWIXWgjMjT6Cu5IZMKBySknnnN7Zw/DcgzLmep+hsbCs5ehxWiqQzaPx3v4m0KG5aL0h2ikQvjWCC53Ylo2w3JJ6Tnu2TkUdWDYFh65i2G5wrOXofF+Q7NKrVWptfVPWpBNkqSC0iqG5SJ0+qHRV9gewogQQnjBZenq4QUXykMIabVYQSN+vN8A7X6/1PdyqO/lkN//1ojOezyHsgsYltuxN0NwuXGGEEBEFMW7Dx5nniiO3p2u23lwU7iOPn+UBAi0I+rtCf2DI7Je+hPtyEnDBVEUsSsEEAELCseO/+83NKMMNDFmH+fiUhiWq7hyE80tzQC0JEkVV24yLMfFpYzZx2mGEEBEkqTf3bO84Gpq62C3xTEsx26L63s5RIsBtCiKReVGhuXyis/TLjmQc2DYFqHTR+j0z6y9st4QQAR3bO3t37w1mmE5/cF//e6exXYgJEmqNder1NpTZVVe74Ksl/50OPn4lCxNTLIsEgGeUELk1t16uDW5Refpmw+StFqs7La4i9dqA7toOObmPWCSRmyv6XakQwYRn28x++T3MieCYgwM27i4lFpzPXoTj8c7OzePDEBAqJqYlj0+OQUtfv/SlaRBDBlE+BlXzJ4jikZkYNgWmXBAlqEYTXUYodFwyFKeySln6tH8kIzQ0IjIwgeHk09Kz2lq66A9iyiKuUXnH/9qQR0BK5N5opiO5QghfS+HDuecorUpZHRE0Yi4Z+cyjp9OSs+597CxxdLVYumqf9JytqqmoLTqsx370B9JktTU1vHpF0llVTVNbR3AWX3LbKis3pdxQmaV3oOIz7fICy5ecHk8XsRbRszOza/E4PF4YbjPtygbFfzT75cEl5sXXDCQNiK37tbDWLCRGKHICDrZabVYt2hiZQz4SSc7K2Z6U9MzV27c+bs+DYep1NoTp885+RlakgWfr/TidZVay7DcpnBdScVVcHuSJHW/GEhMy4Yu6M0/UyEbTk+FtJOfKamshncdGFhuNNknHIFGBDM93CRN0B4aMz2aAWlZsCfXEa93odxogkg5+ci3j3+1OJz8mwlHWVUNvFBhCgDPExE6fYul61FTG0QKV2/cmfd4isqNm7dGf/2dobP7xTQv3H3wGI4oMS0bhyMESPj90t0Hj8O4+CVwK6vH7ONvJhyGymqVWhuz5wjMH7PnCD/zThaDw9eLeAeRaV7Yn5nLsFwYF9/Q/JS2VZgv4LsL5AWgw7zg+jLpMMNympjk1KP50bvTB4ZtuEUcy7Cc7ECQRxTFsqoalVq7RRP7qLENl8YwFI5Ududx+DoSbxGBSA6elVBseiWwbWjAr9Wao/SHJqemCSGTU87IhAOwaU1MMg0HzIB2sdxooucEGsNNhuXKqmro6IAQ0j84ot6eAJOjEQmcZL1alhFZ8PlyCspg1fwzFbI9EUJEUcw/U4EJJTy34Imha9y8NbqprSNwc6a6n2FyRUTaO3vgWul2HsTYCSeZ5oUo/SHFSAR51pFYRqSxrQOsoGISteDzVd8yq9RaQ2U1gPX6zcRnO/bhFUCBZS90sFGIDgARfLNAGdyzcylZedB77rIJ7wsy9L0cggTvDzAiy74G39cYlktMy7aPT4LLfDPhaLF0lV68rolJVqm1Jw0XMKGkg1/aNSJGKM/Su85/w83NW6MDk6vgh0EIwRuHKklPvu70ko6Mjtk//SIJTinwP5Q2BoZtgacHu0GBFfWLEIJ3KvCQF3y+Y/klsCjtL1FOWr/+ACOyrCP4VMuw3KWa22P2cdARweUONCi4VyRQYEWRCCFGUx3IXFRulMEKt2+l3vfqF+5hHYklHUG1DI/cFegm3rsYDlfU6tm5efDoKrW2vbNHNtuz530YxSneuNUbkXmP52xVjaGyWrYEfq6hpocifZl0WPaKi9OtRNBGJNBqBr8yhBBUz5VuHO4t++T3gamAz7focPKtz56XXrwue3+XbXhtNb37Dc2gt4eyC+Y9b+tjskkVP4MbETo2Qz/CC65/7Mu8UF1LIyIrmsBaikbEXN+I6S8A+rfYvd+cKoMQESsS9G7XXNNDQxAcEUmSGpqf9v42SC+GYxWNiCJend0vwrh4cDo4XFE9cTg6KVDJQH1Bd6mIyJpreoLLvTP1GMNydL5Ii00IkSTJXN+4RRN7rdZMd6FWKxoRFBjxglAw9Wg+OPLJqWmIvgIRwdIsXXYDSxzodIIjgpkenebiEJl6LkdoWPVSNG9gtP4SESULsWmtVhyIhrOgtAq8TFNbxxZNLKYCeK1kdkQUxWu1SzEhXGfEy1zfqIlJltUTCCEonqKOoHRrqOnhgUTo9A3NT8GGeTzeMft4xZWb4ZG7wrj4h09a8RUT1AQrKbJCISoRqsDxwnM+32Lrs+cROj0GvsCG+VR6TsHk1LTfL43YXqdk5YVx8T89aoK31QidfmDYNmx7/Xn8V4qFmOCI/I81PVEUfzA/xIcJOBxIZy/V3Fa0uPYJB5SLsvLOrPSk1Gqx4pybwnWXam4HxjhOfuZoXglqBMNyKVl58HOX/7xFQHEX9vP1dwaMmxH39+oIzYn0amt6oigOjozBu5u1t19wuWUxFc4IxgV+oKKIF3J6vQvW3v72zp4gjyOEEMHlbu/sabF02Scc9KJ+v/T6zUSLpWto9JVMSXGJ4DqCbEiEdk0PxQhCrBWRDVLTWy9ENk5Nb10Q2Tg1vSBwrN6ybqia3ocjAnBsnJreByKyAWt6H4LIetb0gu/jT+8VRRFKf90vBiD33Z+Z2z84wgsuweXG4GUdanp/uqir3ECQsh6mQoQQzPQwEKcJWUa2nOmtcgf/D2wfEZGf8kdE5Ij8G+xvZ7lARmCMAAAAAElFTkSuQmCC;fontSize=15;" vertex="1" parent="1">
          <mxGeometry x="599" y="239.99" width="35" height="18.85" as="geometry" />
        </mxCell>
        <mxCell id="4DALYiYjgBZSiOKcUsGB-75" value="" style="shape=image;verticalLabelPosition=bottom;labelBackgroundColor=default;verticalAlign=top;aspect=fixed;imageAspect=0;image=data:image/png,iVBORw0KGgoAAAANSUhEUgAAAFsAAAAxCAIAAAA6O0LyAAAAAXNSR0IArs4c6QAACKhJREFUaAXtWf9TU1cW7x/0fsgMnWGGH94wGYZlJ7P1tSHLUnBh0CCiUhUQB7QLWoE6aEEoKIKiKMpgoa4Saw1SChSQSEBAloZviYYvITxeGiAhvLy7yx729PneC7UrdTST/JA597775ZzPPfd8ux+Q0O9VBD54tRlqkfceEZ7nf+juT/nspEqtDYvSpWbmP2jrXPf5Ap2tIAjDY5b0nNMzNrvimPcbkdU1T1HZ5Yy8on7zyIzNfvvbB9E6PUUzh3ILl1gOBRYE4Rf3imXK+qCtMz3ntEqtjdbpJ2de4AAx8R4jIgjCzTv3c8+Ura55UCTLlFWTkE7RTEFJFWqKx+M9dup8hCZxX1bBqXNVFM0EJyKcy737wHFNQvp3j7sEQQBQBEG4dL2JopnwmHjz8BgihUS/eSRoEZmceQF3JDblyMKiUyIzRTNN977HTiSCGRHO5U7NzKdoJi27wL2yijJbpqxRsXspmjl/8Tp2IhHMiBBCWM5lGhxhORcKTAjpNQ1RNEPRzD8ftov7gQ4GRHieb33UkXumLH5ftm7P0bAoXaDzJ4SgHVF/kjI+MR2ciIAFhWPH/4ft3XJpCSE2+xyTlEHRTM2Nb9DcikcGg45ANMFyrq6+AXpXEkUz9K6k5z9PiuUEmuf50up6imaKyi6LXbJ4ZDAggvIMjY6Hx8RTNKM/+o9f3CvYD4QgCC0Go0qtPVdV5/WuS75iM6gQaW41wq0pLL3M8zwKCUSvaYjelXT1Vov8k3hk8CDi823kn/06kBOxTFmZpIwWg9Hv3wrVPB7vyuqaGAuggwcRdtmVsD9H0YhYpqyxKUcMxk6xKa1vuhfkERoakd0HjnMuNx6+w8mmZRd09Q2I4eB5vrD0csdPJhyGRPDoiKIRca+sHv/iq7TsggdtnT2mwR7ToPHHnot1jSWVdR/tPqjoj94UEZ9vg+VcLOfyeLwIs4RYWV0LNMDj8cJ0n29DMmv7pt8vcC43y7lgotiINLcaYe7qmif3TBlGKBJCkuwAkw4nW9vQDHlgc6vR4WTlnCtXAxaXlm/cuf9XfSZuo1Jrz3x1yckuiyVZ9/kqr95WqbUUzYRF6cprboLbg6pMamY+fIKvxRdqJNPFSyHtZJfLaxsimWTYOixKV13fZJ93yI0IZnrIpJiQeOjzF6+Lv4pphBh4kCLi9a5X1zdBpJyec7rjJ5PDyc7OO6rqGqFChXcYyhPROn2PafBxVx9ECjfv3F/zeEqr68Nj4j//ssI8PLbEcq2POiI0iRTNpGbm43SEAAm/X2h91BHJJG+CW9tgs8/NzjsqahtUam3C/hxYP2F/Drv8ShaD03eKeAWRJZY7lFtI0Uwkk9ze/URsqzBf6DUNwd42+5wmIR0AZjnXp2nHKJrRJKQfPlEcvy/bMmVFFnEuRTOBom+e56vqGlVqbYQm8XFnH26NYSicqmIkghvtCPErIg4nm5yRR9FMhCYRxRbvAbYNDfitFkOcPmthcYkQsrDojE05AkxrEtLFcMAKaBer65vEawKN4SZFM1V1jZIQa3xiWv1JCiwu0XD5Um/es4XIus9XULJZbqNopvhCjYQnQgjP88UXajChhDodnhi6xvCY+K6+ATlbTfe+h8UVEek3j8C10u05OrewKJm+xHJx+izFSEQyckeaW4h09g2AFVRMotZ9voZmg0qtrahtALBezs5/tPsgXgEU+GRxOVY3kT+IDgARec3CvbKakVcEXy9db8L7gtOf/zwJCd5bMCKE/Pd1Ag4ceErNzLfPLYDLnJ139JgGK6/e1iSkq9TasxVXMKH0+zer24CO2DUiRijPZl3nf+FmeEz80Oi4+BMhZPvDIITgjUOVlKyws81NHZmx2f/8tzRARP7/p7h9ZyuuWKas8tMDVlBgRf0ihOCdkh/yus93srgcNpX4S1hcrF9vwYhs6QiEccDWtca7Nvsc6AjncssNivxAUGBFkQgh9U33YPHS6noJrHD7An39Tf2SM/PmPZs6gmoZFbtX7iZ+cw+crqjVK6tr4NFVam2/eUSy2tNnzzGKU7xxr29E1jyei3WNFbUNki0kzdd600ORPk07JqniSpaTN8VGRG41t78yhBBUz0A3DnnLP/u1PBXw+TYcTrb36bPKq7e3qb//7je9h+3doLdZ+SVrnl/fx+Tyy3u2NyLi2Az9CMu5/n4w90pDixiROH2W+F0SNlI0IgZjJ6a/AOhfEg+cOlcFIaLii8TvftNDQ7A9IoIgtHc/Gf3XhBgXnKtoRBTxMg+PRTLJ4HRwuqJ64nR0UqCScn1Bd6mIiJjh18p9OZd7z+GTFM1I8kXxQoIgGIydEZrEWy0GcT9qtaIRQYERLwgFD58oBke+sLgE0ZccEZ7nK2obQHlRg8ASy53ODiNCCHnY3q1Sa1VqraJ5A6P1YXScJMQWa7XiRDScJZV14GW6+gYiNImYCuC1ktgRnudvtWzGhIAI4mUwdmoS0m32OfGpEEJ2HhE8kGidvr37Cdgwj8drs8/V3PgmKnZvJJPc9mMvVjGBIXxJCfTUjirwxflLPt9G79Nn0To9Br6wCOZT2QUlC4tLfr8wbX2ZkVcUySR/97gLaqvROr1lyjplfflx8meKDzE7jwhkLt8a2rAwAYcD6ey1xruKFtc+74DnoryiC4FKSr2mIVwzLEp3rfGuPMZxsssnispRIyiaycgremGfJ4T8pxYBj7vAz+dfVmDcLFaTPwQR2IDn+YlpG1TohkbHOZdbElOJ+RAEYcZm7zePKOKFI73e9aHR8X7zyDbFEUII53L3m0d6TIP2eYd4U79feDk732ManJx5IVFS3OIPRAT3eL+IECLS8wohEkJEioC0HdKRECJSBKTtkI6EEJEisNXmeR6e/obHLJD7HsotHJ+YZjkX53KLg5c3fdMLwMA7173Nsx6mQsD0//+m984J/dYZ2nqdeOv7vrsbhhCRns2/AQzow68ZMfeTAAAAAElFTkSuQmCC;fontSize=15;" vertex="1" parent="1">
          <mxGeometry x="379" y="151.57" width="35" height="18.85" as="geometry" />
        </mxCell>
        <mxCell id="4DALYiYjgBZSiOKcUsGB-76" value="" style="shape=image;verticalLabelPosition=bottom;labelBackgroundColor=default;verticalAlign=top;aspect=fixed;imageAspect=0;image=data:image/png,iVBORw0KGgoAAAANSUhEUgAAAFsAAAAxCAIAAAA6O0LyAAAAAXNSR0IArs4c6QAAB4VJREFUaAXtWf9PFEcU7x+0P1xCExJ+2JALoTSX1m2PK6WHlajnl1OpVZRG1KJWQaOWCopSUBQ9JViordBaUUIBATkFFLTI99OD4ziWXQ+5Y5nbackjj3V3D02kROXIhczMzpf3Pu/N572Z+YBG/l5G4IOXq5EafX8QmQoETpeU5Rc7FraqLMsPH/fYMw4Muty6Pd9tRCRpxuvjm+89OHXuSlziWobljp++oNVTluXn/sme/qE/btXbMw4YjOZ4i61v8Km2J6XvuI+0tnUyLPdJyqb9xwq+2rAzHCKBQHDn/uMxppT16fv2HytgWO69RQSNDDqHQwS7UUoBxAgi85hEEJnHAkoRRN5HRAghVTfrdh38KXn9DsuabVFxFi1fLC8eEUT/yk3fMSyn/N2obVRaf3khAtkEL4gNLffZFasYlmNXrHr0pG/5IoKad3R1RyckMyxn2/b9c/8ktlNKl5ePoOYVVTWwcQ7l/kwIwfZliogkzWQdOQmI/HajVgnHMkWEnxCtGzN0SWSZIoIksnLTd4Loj/gIXYBEltRHJGmGF0ReEAOBoMosWJ18MRWuQyAQhOGSNIP9X6cQCsmC6OcFEQYqSaSiqgZnIIRAt4ePe+Dsu2XXoe7eAV4QBdEfCsnYE4T0+vhiRwXDctEJyRVVNV4fr5Vc/35kbHzi4tXrX9i2Y1JkMJoP/njGx0/gGpTSaUk6de6KwWhmWC4qzpJXdCkYnKaUwq3Muu1Z8Am+5pwoUg1XToVlHz+RV+yI5VJh6ag4S2Fpudvj1SWRvsGn8RYbCqksfLVhJy+IOO3x0xeUX5VlJcQ69yPB4HRhaTlkyvaMA3V3nF4fP+zxFpSURcVZ1m3Pwj0sy/Klq9fjLbYmZ/vthhbIFC5dvT4VCOQWlkYnJO89nN/28PE4L1TdrIsxpTAspxyOsmIhFJKrbtbFcqmz4BY7XO6RYY83v9hhMJqtGzNgfuvGDH5iXk8cu4iFl3xknBe27DrEsFwsl1rbeFeW571OluUzF8oZlmt2dsDyLveIyWoHgHlBBKc1We1bd+ckr9/R0z+EUuJYhuVU2Tf2IYQUlJQZjOYYU8rt+hZcmhCSW1iKJtVmIjjDYhXmEfH6+NS0TIblYkwpqLZyGeC2ujtOaLxcWZ1kSx8dG6eUjo75Eld/C3KbrHYlHNAZebGwtFw5J5RlWa6sroEtVlBSpsq+unsHjJ+vhslVHq6d6s1b5hCZlqR9R2ev2xiWyzlRpJKJUkoIyTlRZPx8dXfvAHI7WgxDY3RCckPLfa1Y5b//BZPrItLa1gnbyrJm28jomGr4OC8k2dLDZSKqzm9enUOkvuU+mEh7iAIGdVRUG4zm/GIHgPVs2PPpys24BVDhPTl505KkEosQcij3Z0BEm276J1+kZWbD1zMXynG/4CSPnvTBAW8JSGSOWfGYBOTnHhmFkDns8TY520+du2Ky2g1G85H8sy+mAiBoKDR7uw3oKEMjYoT6UEox3YxOSO7o6lZ+opQubAxKX5GJqGZ78+qsjwy63B9/uQGspP3/UdL6I/lne/qHtNaD5VFhXf+ilOKe0hp5WpL25OTBotoTLexW9K8lIJE5H4GrRxDrfNk1l3sEfEQQ/VpC0RoBFdZViVJaWv47TJ5bWKqCFXZfuK+v9C+tMG/eMusjGAjiEtdqw8Qr18DhSLTKIZMvpiCiG4zm1rZO5SdK6b0HjzCL091xr08ii/mmhyqp8jyV9LpVJYloWXPhLYOvJwvEEZQt68hJ7VHg/3rTu1HbCH6bnnV0KjDHnbr6axsXJhFlboZxhBfErzfvOuuoVCKSZEsf5wXV/MoghSRSXVOPx1/Y74v/podEsDAisizXNt7t+qdXKTeO1SURXbzaHj6O5VIh6OBwXffE4RikwCW1/oLhUvfdVynwa73XCKJ/zdY9DMslrv52dMynHI9lWZara+pjTCmXK6uxUclBuiSCCiNekApu3Z0DgXx0bByyLy0ihJD8Ygc4L3oQMDH6C0qyyIhQSm/UNhqMZoPRrEtvQFofxiepUmylV+sOROI8eqoEokxDy/0YUwoeBXBbqSI3IeRy5WxOCIggXtU19Sar3eUeQSygsPiIoEHiLbbaxrvAYYFA0OUeKbr4S1zi2lgu9dbfzcobB0opvqSEe1hGF/jh+BlJmmm+9yDeYsPEF5TB89SOfUdHx8ZDIXlg6FlaZnYsl/rn7Qa4W4232Hr6h/qHnn2W+k3RxV9UIRxPFdqXLRVwyFzhBH7pNoAQ8mv1LbyYAOMwLGey2s+XXdNlXLfHy61KY1guM/tEuCulZmcHzhkVZzlfdk2b4/j4id3ZeegRDMulZWY/dXsopf/dRazbnoXC7D2cj3mzUtvF9xGcnRDSO+BqcrY3Ods7uroF0a81CHaWZXnQ5W5t69TFC7sFg9MdXd2tbZ14t4KflAVB9Le2dTY5290er3LRUEh+Nuxpcrb3DT5VOSkO/x8RwTXerUIEEbW9IohEEFEjoK5HfCSCiBoBdT3iIxFE1AjM1ZfuTS+MAG9d81K86b11Si+5QHOvE0u+7tu7YAQRtW3+BUkx89PYcRajAAAAAElFTkSuQmCC;fontSize=15;" vertex="1" parent="1">
          <mxGeometry x="284" y="71.56" width="35" height="18.85" as="geometry" />
        </mxCell>
        <mxCell id="4DALYiYjgBZSiOKcUsGB-77" value="" style="shape=image;verticalLabelPosition=bottom;labelBackgroundColor=default;verticalAlign=top;aspect=fixed;imageAspect=0;image=data:image/png,iVBORw0KGgoAAAANSUhEUgAAAFsAAAAxCAIAAAA6O0LyAAAAAXNSR0IArs4c6QAACLtJREFUaAXtWv9PU1kWnz/o/dCETUj44YU0hGXS7M5bocsw4MqqRUVlGUEhoLOoIzAEGUYYUAYURasEhXWU7rKihAEGkPJNAZfvX6RQSnm0U6ClvN67Sw45c32vLZjFSTpTfiD33ffOufd87jmfc+69/YgG/95F4KN3H4NP9NeDyIbTeb26trRK72tVzRZrcUVNuJDI8cLvY48VlN58azIrPw5sRNzuLYtV7Op9VXbrQUTMUY4Xiq7fURpJKe0dHD7w19Sauiczc6ae/qHML7/meCFMk2BobiOEsCKBjUhP/xDHC39IOHnpavlnx8/5QmRxafngycwu4yBaLklSaZUeQBkcHsV+Sn8tUeN0us5dKvKFyPdNLSER2ozLRSuiDY2fMy1q4pM5XriQX7LpdmN/YPsImuEfkaLrdzhe4Hihpu6JUiRWl84i9ZtApKmlQ6WOVqmjm3/oREQIIYVl1RwvRGp1kzNvsf83gYjHQ0bGJkfGJj2en0l0w+lMzynkeOHgyUyb3RFIiEiS1PisNevKN3HHzmqPnAmJ0Cr5wn/UoLVsA3mkoPSmJEn4KgB8xGZ3HDyZCUSA/5taOtAGSun7IkIIqbz7iOMF4VDKnGmRVRUAiBBCfnKsiTZ7e3cf/8khjhf4Tw6NjE2yZrwvIuNTs5FaXaRW1zs4zOoJsOw7ODwaGhXH8YLuzN9/cqyxlrwXIharmJiSrYlPllUioDAAfAQtr29shqjJLf6Ojfz3ipr1DSdQ0vTsPGpmGwGDiNu9lVPwLSDyfVMLa8PeEYFSNSktZ3FpGTR4PNshyeIbMIiIq/b4ExleSWSPiAAcp7Ny2Xpsadmaej6f7QkYRJBEZOUDLPWuPEIIaTA0Z135xrG2zvrXyNjkuYtX19Y3sDNgEPFDIrv6CCGkvbvv40+Pl1fXtnf3dRoHOo0D+npDaZX+VOYVGSvtgojbvSXa7KLN7nS6EEVZY219w9cHTqcLxN3uLZmU/0ePh9jsDtFmB0GWROobm1FWkiT47PWbcdj7ns7KHZ2YFm12m92BFWqXcTBMk4C1jKzBbnZ8Zt/lldW7D5/+WZeGwip19JWvb1jFVZwNpXTT7S679UCljuZ4ISRCW1J5z+XapJQSQl6/GU9Ky4FX8Db/WqVMnFWFbau4WlKlh3MdEKyoqTOZLV5JZHLmbaRWh5NkG58dPyfa7KAWd3rsB9iWFXtyH3G5Nitq6qBSTs643Pqj0WIVF8yW8urakAhtUloObgEIIfcePo3U6jqNAy/au6FSuPfw6YbTWVxRExoV98VXpf2v36yItsZnrbBErDhCgA2PhzQ+aw0XErfBrdLPmRYXzJbSKr1KHR1/IgP0x5/IEFd37ETB/W28g8iKaDudlcvxQriQ2NLxkj1cIoTcuFPH8QKeu8C+AHxYtNnBaTXxyann8+OOnR2fmsWJoizHC7IFwW8kSSqvrlWpo8M0CS/aunFoSZKKK2pwPWUxj+L72PgZEajk4FgJzWZHAm5r/dEInfcbDLG69KXlFUrp0rI15vDnMG9NfDILB3yMvFhRU8fqhDYkAgix8upatjqglI5OTKsPHAblLIko9exLzw4im273xcJyGDX/WqVsTpRSSZLyr1WqDxwenZhGbscVw9QYGhXX3t2nnFndk3+Dcq+I9PQPQVhpj5zB2gmVrIi2WF26r0oEP9uvxg4ibd19sETKTRQwqL7eoFJHl1bpAaz5BfMfD57CEECDZSd0MEtJknKLvwNElOWmY209JTsP3t64U4fxghaOjE3CBu8XIJGdXIPlDccLSWk5psUlSJkLZkuncaDs1gNNfLJKHV1QenN9wwkTZYtfNjUiRmgPpRTLzdCoOOXmyv9iUEox4tAlWeX73t72kZk508efHodVUv6Hq43xqVnl6sFs0GCv/kUpxZhSLvKm230hvwQGVe5oIVrRv34BEtnxETjjh2ndrn08Z1oEH7HZHUpCUa4JGuzVJEppTd0TUF5cUSODFaLP19td/Us5mf+/Z9tH0C0jYo4q08SuY6C4V69eW9+AjK5SR/f0D8m09b4awSrOa8TtnUR2vdODoaF6TM64PDNnkk0GHt9BhK3zvH6t7GRJRMma/kOGUoru6SviEO6cgm+VW4E93unBKdz41Ow/n7clZ1xWqaNl5++sXduINLV0gN+m5xRuOHe4k/3IT9s/ibC1GeYR0Wb/y6msm/oGFhHZpQmMyCYpJBFDcxtuf/d4pwepI0yTcCz94qWr20XGLoggEfhHhBDS0vFy+D8TLEAo65VEvOLV//pNuJAISQfFvbonimOSApdU+gumS1/3vjhnAHEXRGx2x5HUCxwvxBz+fGnZisJsgxBiaG4L0yTcbzCw/ejVXkkEDUa8oBRMPZ8PiXxpeQWqLyUieDXL8QJ6EDAx+gvOZJ8RgcCBWy+v9Aak9bvIWFmJzXq1V0EkzsKyasgy7d19YZoE3ApgWMl4RJKk+w3bNSGEM+JlaG7TxCfL7hOwhlbe4yBk2NiTj0Dah7vySK2upeMlcJjT6ZozLVbefRQRczRcSHz+QxeeOMAAeJPiywnRBb4suuF2b3X1vorU6rDwBSW4nzp7sXBpecXjIdOz8ynZeeFC4r9etMPZaqRWNz41OzU7/6fEv1XefSRL4R8EEQDlH4bneDABi8PxgiY++XbtY6+MazJbhEMpHC9k513zdaTUZRxEnSER2tu1j5U1jlVcPZ9Xgh7B8UJKdh783OV/ZxFJaTk4mS++KsW6GZf9QyECA0iSNDE9B+dug8OjNrtDuSA4FUII/EDFK174mcu1OTg82tM/hGcr+Ipt2OyOnv6hTuOAyWxhB/V4yPyCudM4MDnzVuakKL7/PIKqA7QRRES+cEFEgojIEZA/B30kiIgcAflz0EeCiMgR2Hne450epRQuHi1WsUpfz/FCaFRcfWOzxSoqbyO3TwMC92+Pd3qUUj/XerJ9Y2Aj8iHWMoiIHNUgInJE/gtNDsXYbD2QcAAAAABJRU5ErkJggg==;fontSize=15;" vertex="1" parent="1">
          <mxGeometry x="522" y="70.77" width="35" height="18.85" as="geometry" />
        </mxCell>
        <mxCell id="4DALYiYjgBZSiOKcUsGB-78" value="" style="rounded=0;whiteSpace=wrap;html=1;fillColor=#dae8fc;gradientColor=#7ea6e0;strokeColor=#6c8ebf;fontSize=15;" vertex="1" parent="1">
          <mxGeometry x="571" y="260" width="19" height="20" as="geometry" />
        </mxCell>
        <mxCell id="4DALYiYjgBZSiOKcUsGB-79" value="" style="rounded=0;whiteSpace=wrap;html=1;fillColor=#f8cecc;gradientColor=#ea6b66;strokeColor=#b85450;fontSize=15;" vertex="1" parent="1">
          <mxGeometry x="203.5" y="90" width="26.5" height="20" as="geometry" />
        </mxCell>
        <mxCell id="4DALYiYjgBZSiOKcUsGB-80" value="" style="rounded=0;whiteSpace=wrap;html=1;fillColor=#fff2cc;gradientColor=#ffd966;strokeColor=#d6b656;fontSize=15;" vertex="1" parent="1">
          <mxGeometry x="414" y="290.25" width="26" height="20" as="geometry" />
        </mxCell>
        <mxCell id="4DALYiYjgBZSiOKcUsGB-81" value="" style="rounded=0;whiteSpace=wrap;html=1;fillColor=#f8cecc;gradientColor=#ea6b66;strokeColor=#b85450;fontSize=15;" vertex="1" parent="1">
          <mxGeometry x="203.5" y="50" width="26.5" height="20" as="geometry" />
        </mxCell>
        <mxCell id="4DALYiYjgBZSiOKcUsGB-84" value="" style="endArrow=none;html=1;rounded=0;fontSize=15;" edge="1" parent="1" source="4DALYiYjgBZSiOKcUsGB-85" target="4DALYiYjgBZSiOKcUsGB-83">
          <mxGeometry width="50" height="50" relative="1" as="geometry">
            <mxPoint x="140" y="220" as="sourcePoint" />
            <mxPoint x="660" y="220" as="targetPoint" />
          </mxGeometry>
        </mxCell>
        <mxCell id="4DALYiYjgBZSiOKcUsGB-82" value="" style="rounded=0;whiteSpace=wrap;html=1;fillColor=#fff2cc;gradientColor=#ffd966;strokeColor=#d6b656;fontSize=15;" vertex="1" parent="1">
          <mxGeometry x="414" y="209.75" width="26" height="20" as="geometry" />
        </mxCell>
        <mxCell id="4DALYiYjgBZSiOKcUsGB-83" value="" style="rounded=0;whiteSpace=wrap;html=1;fillColor=#dae8fc;gradientColor=#7ea6e0;strokeColor=#6c8ebf;fontSize=15;" vertex="1" parent="1">
          <mxGeometry x="571" y="210.00000000000003" width="19" height="20" as="geometry" />
        </mxCell>
        <mxCell id="4DALYiYjgBZSiOKcUsGB-86" value="" style="endArrow=none;html=1;rounded=0;fontSize=15;" edge="1" parent="1" target="4DALYiYjgBZSiOKcUsGB-85">
          <mxGeometry width="50" height="50" relative="1" as="geometry">
            <mxPoint x="140" y="220" as="sourcePoint" />
            <mxPoint x="571" y="220" as="targetPoint" />
          </mxGeometry>
        </mxCell>
        <mxCell id="4DALYiYjgBZSiOKcUsGB-85" value="" style="rounded=0;whiteSpace=wrap;html=1;fillColor=#d5e8d4;gradientColor=#97d077;strokeColor=#82b366;fontSize=15;" vertex="1" parent="1">
          <mxGeometry x="441" y="209.75" width="20" height="20" as="geometry" />
        </mxCell>
        <mxCell id="4DALYiYjgBZSiOKcUsGB-88" value="" style="shape=image;verticalLabelPosition=bottom;labelBackgroundColor=default;verticalAlign=top;aspect=fixed;imageAspect=0;image=data:image/png,iVBORw0KGgoAAAANSUhEUgAAAGoAAAAxCAIAAAC9Cqv0AAAAAXNSR0IArs4c6QAACj5JREFUaAXtWv9TE1kS9w+aH6hiq6jihykrRXHcpm53SsxxWWBh3UUFlGP9ghSgi4qAHAoIyoLggRGUQ0VOye6erBYlfskSE76zWUS+aITwJSaEZJJx8t4V9bzmOTOEBPSqBC3K6rx5r/u9z3T36+7pbfjTvw0gsG0Daz8txVsLPp8g3H/4266/Hw1TxW7nkjPzih8be0VRlCvCs/Gp/JLzkeoEhuV2fJP5Y+O/5u2v5dO2EHxuD3/sdFVGbtGwZczt4a0zs4ePlzIsd+x0ldvDAzQIIX3ngx3fZHbc7ZqyTnc9Mu4+mM+wXLQm5WnfEEwjxBaC72qbnv0yqf3ne6BuYxMvojUpDMvVXbmBECKIDFvGtHsOjz6fBKTcHj7nVAXDclxSxpR1GsYx3jLG6/UJBIKIGG3fkIVAYHc4v9qbxbBcyoEfFl1LZLCyrilSnXCmuoFWSfPASESMlmG5msutAPQWgk8UxZKqSwzLRaoTBn8flcC3P6dwye3BGPO8N+vEWYblGJbremQERQOgD+WXevgVS99Cxuvh+Uc9vWMTL0B9Rp9PRu38jmG58lodGUQI1V25IUEZY+zh+UP5y47yq71ZdocTYN1C8MGZgbjapmdYTh2f9nzyJQz6BKFvyDIxZQWUMcYLdkdcyiGG5XJOVXh9AkzeovD5/ejJ0/5oTYrifQroAAG+72qbHga3kO+DM0++fJWYnk2824FjJQt2BzxajfAJwvHSaobldh/Mdzhd9DRl7SMKbJ2ZpRWYXvbx0gihRdeS3eEcm3iRduTkdi75lv5XCGUUz9VtMEXEaLV7Do9TNk5mKsAHYH+RuO/lqxlFjptjcNo2p/n2QJgqtrqhZTUER59PquPTEtOzFaFQgO/lq5kvEvcxLLdz1/e2ufnNgZTiKRBCpRcayD0LwSA9c3benpyRuz+ncDUbV4Cv65GRuIasE2d53kuz+6hpnvcuupYk7uhmRyc5bK2uVXI6kmzkFVW6ltzkkSiKi64lv/9tfqJwdSCEymt1q3GUCPiIfhIbDFPFXmpuoxEE+M7+eJk+DsGuqOIinXsM/zGWV1QZKGxecnv25xQyLBemiu0xD9IcP2oaYJKYVK2ulejKzY5OOKAoilX1zZV1TT5hJcTDGHc9MhaWX6S9pNR4J6asf/7b3s3n+B4YTGGqWIn2+QThaHEliZyhFuD3oxt37v4lIb2xpf2xsfexsbfbYGpsaa+qb05Iy9a13gaUFYwXHN/R4koJ9vSyJbfH7nAKwht6EGNMxoP0mBBDyPlI2JKfAZjzvNfucCpuiax1LbkzcotyCyvowO2JsS9SnRCmim3TdxKLRgi16TvDVLFEJeX/04nwMnwOpyu7oEy75zD5+1PcHrJmO5cMg2U1l+GEXq+vvFZHBIRHaRqu3fIJAkJoYGT028yjZG14lKayrsnr9SmiQFLIxpZ2km8yLBcepanVtXq9PrvDaTD1T9vmJAt9gnDhn9dAKDAncncfzIcDh0dpis/VKZY2F+yOA8dKItUJ2QVlVfXN+f+4EB6l+Vyb2m0wgTekSwZy7OhqDdnhNrBW+WwYgSoNQqjp+h11fJqxd/Bet4HUcC7qrt/S/xoepckuKBu2jFmnbUUVFxmWo70JwIEQMvYOfq5NDVPFnjhTbXk2Pjtvv3brp0h1Qnp2gXbPYYblEtOzaR0hQqM1KY+NvSC06fodD8+X1+oiYrTHTleZB0YW7I6Ou12kPixPD8gGEELWmdk2fWdVfXNjS3vfkAXUAnYYEvGO71sz4puyTnNJGSTvgxrOZ9Fxn0XHXW3Ti6Lo9vAlVZeILuSXnJdsjhRyib2Q+bDX9p/vgQZJikJT1ml1fBp5GSBUHZ+WmVcsqWsihGouv70Kfrn/EJh/OOId+MDxSeoKIP5mRyekIoA1KfiQ+6jHPAgolF5oAKMgHIivYVgut+icxD86nC6w/cq6JpCIMb7apo9LOWSbW8AY2+bmd+76npiFOj6NrgmTJXDDyuM4muf7ot+Br7KuiexMcr8QYcQvwM39tH+YIEWXsOEFhKliHxhM9C6J5jIsp9qxa9gyRj+iC2qSOqVEaN+QhXiMiBht97v8CcPW2/8hR/h/w0dHfE/7hyXHwxgTLwlGoWu9TTYKgGKMvV5ffdON1KyTD38z09G5KIrF5+rIfMU7HdQqWpMyNvECpBMdB6GAjiITURQLy5fdLsNy//7lPjD5cMSK9sEdslqq6/cv1yqIkQrCm/yS82SjcLYAu7Q8G1ft2EXmS+5+sgp0GermZDwkofbXzvjUIwzLya/IAHvbyKMV+MDuVnN8tBiovkqUhZ5D0xDcg+ukn2KMQZehbi6ZgDEGdNgvk4b/kJo/xhhMOz71iP31Skldzup9jazAF9jxSeTBRulvVJI58BPcAsNykpyJzKF1WVE3ybQ1hQbzDmBX74V4Cx+cMMhUF3xQAGWB/dF3tKJHX83xAQdCwK1Ke1uYE9IR5u2vT5ypDuAfQ+syWNPxwS4xxrSyBOP44Gu05FYFnqBWEscHEyRCFY8NTFazXJ73vpqZ7TaYTlfWk+h6tcA+5C4DcHwS47LNLcSlHJKICdXxAXxRO7+TR2qKjs88MMIlZUxMWQHBwI6PDpghR7I7nF/vy7nU3EaY3OxYTmb/mnKwqOIiaS6QnItMW0+XATg+iXHd7OiUXw7wnoNxfBhjMF45K8mXadDlWl2rhHlgoYrgmgdGtnPJ8jIypC6K8IXcZUDnyU+MffDCSaBL93/AayQhSDCOD2Ps9vCZecWky4aO6TDGdIUD7tNF11LKgR8kzAM7Pjm45ItNZl4xXe8k+w8AHw0FfYnBEklCuXx10L4MSqSuJXd2QZk896ZDU1AWQHw1Qt/5QB70QQpMHoFuEq0xD4wAtzWFQtgImWK3wRSpTqAhAG6AhVz71tll8Mv9hyQDu3Hnrt/v/310PO3IyeSMXHntyOF0ke+kcFrYVgACmpQS07PHJ1/6/WjaNneqrCYiRnvt1k/VDS0k1u02mGxzC6lZJ4+XVtPVxjWFEh/NsFzB2RpBeEM+gVfVN9OVYdheAPgwxuvpMhBFsbGlPTxKQxQhTBV7qqzmtXMRRAJhnZnlkjIU036Yo0h4eL6i9gqIYFju6305AyOjCCHSeUdEk6/Rs/N2mkkwQp8Y+7ZzyYRJeJSmsaVdEbvl8Pt/jVVy7aOF0nRQXQYOp6vHPGgw9dvmFiTFEuCFEJqYsvaYB+kvJvB0TcLt4fuGLI+Ny606dFKMELLNLRhM/cOWMfmxgxTq9fr6hiw95kG6XCjfUqjwwYdvuStbyTrkYjbrSKjwhdZlsFlRg3OFBF/IXQYgZrMSwcO3ni6DzYoanCtI+NbTZQAyNjERDHzr7DLYxKjB0daEb/1dBiBjExOB4dtQl8EmRk0Q3pBOhAcGE6m4nDhTPWWdtjuc0HlF5+AQxtOEJAvcQnFfj3mQBoKmoUxHlwzoCYSWf0LZQvB9CMP6BN+GUP0E34bg+y/62IzQrzzc7AAAAABJRU5ErkJggg==;fontSize=15;" vertex="1" parent="1">
          <mxGeometry x="430" y="330.41" width="45.99" height="21.26" as="geometry" />
        </mxCell>
        <mxCell id="4DALYiYjgBZSiOKcUsGB-89" value="" style="rounded=0;whiteSpace=wrap;html=1;fillColor=#d5e8d4;gradientColor=#97d077;strokeColor=#82b366;fontSize=15;" vertex="1" parent="1">
          <mxGeometry x="441" y="290" width="20" height="20" as="geometry" />
        </mxCell>
        <mxCell id="4DALYiYjgBZSiOKcUsGB-91" value="" style="endArrow=classic;html=1;rounded=0;exitX=0.5;exitY=0;exitDx=0;exitDy=0;entryX=0.5;entryY=1;entryDx=0;entryDy=0;" edge="1" parent="1" source="4DALYiYjgBZSiOKcUsGB-88" target="4DALYiYjgBZSiOKcUsGB-89">
          <mxGeometry width="50" height="50" relative="1" as="geometry">
            <mxPoint x="500" y="240" as="sourcePoint" />
            <mxPoint x="550" y="190" as="targetPoint" />
          </mxGeometry>
        </mxCell>
      </root>
    </mxGraphModel>
  </diagram>
</mxfile>
